<?xml version="1.0" encoding="utf-8"?>
<!-- Generator: Adobe Illustrator 26.2.1, SVG Export Plug-In . SVG Version: 6.00 Build 0)  -->
<svg version="1.1" id="Capa_1" xmlns="http://www.w3.org/2000/svg" xmlns:xlink="http://www.w3.org/1999/xlink" x="0px" y="0px"
	 viewBox="0 0 128 40" style="enable-background:new 0 0 128 40;" xml:space="preserve">
<style type="text/css">
	.st0{fill:#008244;}
	.st1{fill:#FFDD00;}
	.st2{fill:#005CA9;}
	.st3{fill:#E8412C;}
</style>
<g>
	<path class="st0" d="M16,38.8c-0.2,0,1.7-0.8,3.4-2.3c1.4-1.1,2.8-2.9,3.6-4.5c0.4-1.4,1.1-2.1,1.7-2.9c0.4-0.5,1-1.4,1.3-1.8
		c0.9-1,1.9-2.5,2.6-2.9c0.9-0.5,2.6-1.1,2.7-1c0,1.7-0.6,4.2-1.4,6.1c-0.9,2.2-2.6,4.5-4.2,6.2c-1.9,2.2-4,2.8-5.9,3.2
		C18.9,39.3,16,39,16,38.8L16,38.8"/>
	<path class="st0" d="M31.5,21.8c0,0-1.4-1.2-3.1-1.3c-1.3-0.2-3.1,0.4-3.9,1.6c-0.8,0.6-3,2.6-3.9,3.5c-0.5,2.8-0.2,3.7-0.2,6.4
		c0,0.1,2.4-0.5,2.9-0.6c0.6-0.7,1.5-2.4,2.3-3.4c0.8-0.8,1.9-2.3,2.9-3.4l2.9-1.2L31.5,21.8z"/>
	<path class="st1" d="M19.4,0.5c0,0,0.9,0,1.5,0.3c0.4,0.2,0.9,0.5,1,0.8v0.2c0.7,1.3-0.2,5.1-0.2,5.9c0,0.9-0.4,4.7-0.6,5.4
		c-0.2,0.7-0.5,2.2-0.5,3.5c0,0.6,0,4-0.2,7.1c-0.1,3.2,0,7.9-0.1,8.2c0,0-0.8,0.1-1.2,0.1c-0.1,0-1.1-0.1-1.9-1.5
		c-0.9-1.5-1.7-3.4-1.9-4.3c-0.1-1,0-2.4,0-3.8c0-3.7,0.5-10.9,0.5-11.2c0-0.2,0-1.1-0.1-2c0-0.8,0.2-1.6,0.1-2.3
		c-0.2-1.6-1-3.5-1-3.9c0-0.5-0.8-2.4,1.1-2.3C16.6,0.5,18.8,0.3,19.4,0.5C19.4,0.5,18.8,0.3,19.4,0.5"/>
	<path class="st2" d="M14.5,1.2c-1.8,0.2-7,4.8-6.8,6.1c0,0.4,0.7,1.6,0.7,2.1c0.3,0.2,0.3,2.1,0.7,2l1.7-1.3l1.5-0.1
		c0.9,0,2.6-0.4,3.6-0.7L16,7.9c0.1-0.5-0.1-1.2-0.1-1.7c0-0.9-0.9-2.3-0.9-3.1C15,2.9,15,1.3,14.5,1.2C14.5,1.2,15,1.3,14.5,1.2"/>
	<path class="st3" d="M21.9,1.7c-0.4,0-0.2,5.3-0.2,6.2c-0.2,0.4-0.3,3.4-0.3,3.4s2.5-0.1,2.6-0.1l3.2-0.7c0,0,1.5-0.1,2.3-0.2
		c0-1.2-1.3-3.5-2.7-5.1C25.1,3,22.5,1.4,21.9,1.7C21.9,1.7,22.5,1.4,21.9,1.7"/>
	<path class="st1" d="M20.6,15.6c0,0.1,3.2-0.4,3.4-0.4c1.4,0,2.5,0.1,3.7,0.2c0.8,0,2.5,0.7,3.6,1c0-1-1.1-6.3-1.8-6.3
		c-1.7,0-3.5,0.3-5.2,0.7l-3,0.4C21.3,11.5,20.6,15.3,20.6,15.6L20.6,15.6"/>
	<path class="st2" d="M20.8,15.6l-0.2,9.8v1.1l0.1-0.1c0,0,0-0.6,0.7-1.4c0.8-0.5,2.6-2.3,2.7-2.4c1.3-1.2,2-2.2,4.5-2.2
		c0.7,0,2.2,1,2.9,1.2c0.6,0,0.3-4.7-0.1-5.2c-1.4-0.5-3.6-1.1-5.4-1.2C24.3,15.1,22.2,15.2,20.8,15.6
		C20.8,15.6,22.2,15.2,20.8,15.6"/>
	<path class="st0" d="M23.6,31.2c0,0-2.6,0.9-4.2,0.9c-1.1-0.1-2-1.3-2.3-2.1c-0.4-1.5-1.3-2.8-1.7-3.7c-0.9-0.2-3.4,1.2-4.2,1.8
		c-2,1.3-4.5,3.1-4.4,3.4c0,0,2.7,4.8,5.3,6c0.9,0.4,2.4,1.6,3.9,1.4c1.3-0.5,3.4-2,5-3.4C22.5,33.5,23.6,31.2,23.6,31.2"/>
	<path class="st0" d="M6.8,31.3c1.1-0.8,4.4-3.2,5-3.6c-0.8-0.9-1.6-2.4-1.6-3.6c0-0.3-0.7-2.3-0.8-2.4c0-0.2-0.7,0.2-0.9,0.2
		c-0.3,0-1-0.3-1.4-0.3s-2.6-0.7-2.8-0.9c-0.2-0.1,0.1,0.9,0.1,1.7c0,0.8,0.5,3.2,0.5,3.6C4.9,26.1,6.8,31.3,6.8,31.3L6.8,31.3"/>
	<path class="st3" d="M9.4,21.7C9.2,22.3,5,21,4.3,20.6L4.1,19c0-0.1,0.4-2.6,0.4-3.4c0-0.9,1-4.5,1.3-5s1.5-3.2,1.8-3.2
		c1,0.2,0.7,2.6,1.1,3.4c0.2,0.1,1,3,0.6,4.6C9,17.1,8.7,18.3,9,19.7C9,19.7,9.5,21.4,9.4,21.7C9.4,21.7,9.5,21.4,9.4,21.7"/>
	<path class="st2" d="M11.7,14.7c0,0-2.1-1.1-2.3-0.4c-0.2,0.7-1.1,4-0.1,7.1s0.8,3.7,1.2,4.4c0.3,0.6,0.8,2.1,1.1,1.9
		c1-0.4,3.3-1.2,3.8-1.5c-0.1-1.6,0.1-6.7,0.1-7.3c0-1.5,0.5-2.8,0.2-3.1c-0.4-0.3-1.6-0.3-1.8-0.3C13.7,15.5,11.7,14.7,11.7,14.7"
		/>
	<path class="st1" d="M15.8,9.3c0,0,0.5,0.6,0.3,1.5c-0.1,0.6-0.3,2.2-0.3,3.1v1.8c0,0-1.5-0.1-2.2-0.3c-1-0.3-3.1-1-3.2-1
		c-0.1,0-1.2,0.1-1.2-0.5s-0.5-1.7-0.4-2.3c0-0.3,0.6-1.5,1.5-1.5c1,0,1.7,0,2.3-0.1C13.2,9.9,15.8,9.3,15.8,9.3"/>
	<path class="st3" d="M17.6,11.8c0,0,0.2-0.5,0.6-0.5c0.2,0,0.5,0.2,0.7,0.7c0.4,0.9,0.6,1.5,0.6,2c0,0.7-0.3,1.1-0.3,1.4
		c0,0.3-0.3,0.7-0.6,0.8c-0.2,0-0.6-0.2-0.6-0.3c-0.1-0.2-0.6-0.9-0.7-1.3c-0.2-0.7-0.2-1.2,0-1.6C17.3,12.7,17.6,11.8,17.6,11.8"/>
	<path d="M17.4,13c0.3-0.5,0.3-1,0.3-1s0.1-0.5,0.4-0.6h0.1l0,0c0.1,0.1,0.3,0.3,0.5,0.6c0.4,0.9,0.6,1.5,0.6,1.9
		c0,0.6-0.2,0.9-0.3,1.3c-0.1,0.4-0.3,0.7-0.5,0.7c-0.1,0.1-0.2,0-0.3,0c-0.1,0-0.2-0.1-0.3-0.3c-0.3-0.5-0.6-1.1-0.7-1.6
		C17.2,13.7,17.2,13.4,17.4,13 M17.9,16.1c0.1,0.2,0.3,0.3,0.4,0.4c0.1,0,0.2,0.1,0.3,0c0.3,0,0.5-0.4,0.7-0.9
		c0.1-0.4,0.4-0.7,0.4-1.3c0-0.5-0.1-1.3-0.8-2.5c-0.2-0.4-0.4-0.6-0.6-0.7c-0.1,0-0.1,0-0.2,0c-0.4,0.1-0.6,0.7-0.6,0.7
		s0,0.5-0.4,1.1C16.5,13.9,17.2,15.1,17.9,16.1 M9.7,6L9.7,6L9.7,6 M9.7,6c0,0,0,0.1-0.1,0.1C9.7,6.1,9.7,6.1,9.7,6 M25.2,2.6
		L25.2,2.6L25.2,2.6 M25.2,2.7C25.2,2.7,25.3,2.7,25.2,2.7C25.3,2.7,25.2,2.7,25.2,2.7 M30.2,20.1c-0.7,0-1.1-0.4-1.7-0.4
		s-0.9,0.2-1.5,0.2c-0.3,0-0.6,0-0.9,0.1c-0.2,0-0.5,0.1-0.7,0.3l-0.1,0.1c-1,1-1.6,2.2-3,2.2c-0.1,0-0.2-0.1-0.3-0.2l0,0
		c0-0.1-0.1-0.1-0.1-0.1L22,17l0,0l0,0c1.1-0.5,2.1-0.9,3.3-1c0.2,0,0.4,0,0.7,0l0,0c1.7,0,2.8,0.1,4.1,1.1c0.7,0.5,0.7,1.3,0.7,2.2
		C30.7,19.6,30.5,20.1,30.2,20.1 M26,33.5c-0.3,0.3-0.5,0.5-0.8,0.8c-1.2,1.2-2.4,2.3-3.5,2.9l0,0c-0.3,0.2-0.5,0.3-0.7,0.4
		c-0.2,0.1-0.3,0.1-0.5,0.2c-0.3,0.1-0.5,0.1-0.7,0.1s0.2-0.2,0.7-0.6c0.2-0.1,0.3-0.2,0.5-0.4s0.5-0.4,0.7-0.7l0,0
		c0.8-0.8,1.6-2,2.2-3.6c0.4-1.2,0.9-2.2,1.3-3.1c0.2-0.5,0.5-0.9,0.8-1.3c2.4-3.6,4.7-3.6,4.7-3.4C30.5,27.5,28.4,30.9,26,33.5
		 M18.5,36.4C18.5,36.3,18.5,36.3,18.5,36.4C18.5,36.3,18.5,36.3,18.5,36.4 M14.7,37.3c-1-0.1-1.9-0.5-2.7-1.1s-1.6-1.4-2.2-2.1l0,0
		c-0.3-0.3-0.5-0.6-0.7-0.9c-0.6-0.9-1-1.6-1-1.6s0.4-0.3,1-0.7c0.2-0.2,0.4-0.3,0.7-0.5l0,0c0.6-0.5,1.4-1,2.2-1.6
		c0,0,0.1,0,0.1-0.1c2.2-1.6,3.7-0.8,4.5,2.3c0.3,1,1,1.5,1.8,1.8c0.7,0.2,1.4,0.2,2,0.1c0.2,0,0.3,0,0.5-0.1
		c0.3-0.1,0.5-0.1,0.7-0.2l0,0c0.3-0.1,0.5-0.2,0.5-0.2s0,0-0.5,0.6l0,0c-0.2,0.2-0.4,0.5-0.7,0.9c-0.1,0.2-0.3,0.3-0.4,0.5
		l-0.1,0.1c-0.7,0.8-1.3,1.4-2,1.9C17.1,37.2,15.8,37.5,14.7,37.3 M6.8,28.7L6.8,28.7L6.8,28.7c0-0.1,0-0.2,0-0.2l0,0
		c0-0.1-0.2-0.6-0.4-1.2c-0.2-0.6-0.7-1.4-0.8-1.9c-0.1-0.5-0.5-2.4-0.5-3.2c0-0.8,0.4-0.4,0.9,0c0.3,0.2,0.6,0.3,0.8,0.4l0,0
		c0.2,0,0.3,0,0.5,0.1c0.4,0,0.7,0.3,1.3,0c0.5-0.3,0.5,0.2,0.5,0.4c0,0.1,0.2,0.5,0.3,0.9c0,0.3,0,1.5,0.4,2.3c0,0,0,0,0,0.1
		l0.1,0.1c0.3,0.7,0,1-0.1,1.1l0,0l0,0c0,0.1-0.2,0.3-0.7,0.8c-0.2,0.2-0.6,0.5-1,0.8C7.1,29.8,6.9,29,6.8,28.7 M4.9,19
		c0-0.1,0.3-2.6,0.3-3.5c0-0.9,0.6-3.9,1.1-4.5c0.2-0.3,0.3-0.5,0.4-0.7l0,0C6.9,10,7,9.7,7.2,9.8c0.4,0.2,0.4,0.5,0.2,0.9
		c-0.2,0.4,0.1,1.5,0.6,1.8c0.5,0.1,1,1.7,0.4,3.5c-0.5,1.9-0.5,2.5-0.2,3.9c0,0,0.3,0.5,0.2,0.9c-0.2,0.4-0.8,0-1.6-0.4l0,0
		C6.4,20.2,6,20,5.7,20C4.7,19.8,4.9,19.1,4.9,19 M9.1,7.4C9.2,6.9,9.5,6.5,9.7,6V5.9V5.8c0.2-0.5,0.5-1,1-1.2
		c0.3-0.2,0.8-0.5,1-0.7c0.1-0.1,0.2-0.2,0.3-0.3c0.5-0.6,0.8-0.8,1.8-0.9c0.5,0.1,0.4,0.6,0.5,1.2C14.6,4.7,15,5.2,15,6
		c0,0.5-0.1,0.8-0.3,1.3v1.1c-0.8,0-1.5,0.2-2.3,0.5h-1.5l-0.7,0.4c-0.1,0-0.2,0-0.3-0.1l0,0c-0.2,0.1-0.3,0-0.5-0.1
		c0-0.3-0.1-0.6-0.2-0.9C9.1,8.2,9,8,9,7.8C9,7.7,9.1,7.5,9.1,7.4 M14.7,19.5c0.4,0.6,0.1,2.8,0.2,4.4c0.1,1.6-0.3,1.5-1.5,2.1
		c-0.7,0.4-1,0.3-1.4,0.1c-0.2-0.2-0.4-0.5-0.6-0.9c-0.7-1-0.3-1.1-1.4-4.3c-0.1-0.2-0.1-0.4-0.2-0.6v-0.1c-0.5-1.6-0.3-2.6,0-3.3
		c0,0,0,0,0-0.1c0.2-0.4,0.4-0.7,0.5-1c0.2-0.6,1.1-0.3,1.7-0.1c0.3,0.1,0.5,0.2,0.5,0.2s1,0.5,1.4,0.7c0.4,0.2,0.5,0,0.9,0.3
		c0.3,0.2,0,0.5,0,1C14.9,18.7,14.7,18.7,14.7,19.5 M15.1,10.9c-0.1,0.7-0.1,1.4-0.2,2.4c-0.1,0.9-0.1,1.8-1.5,1.2
		c-0.5-0.2-0.9-0.3-1.4-0.5c-0.7-0.2-1.2-0.4-1.3-0.4s-0.7,0-0.9-0.6c-0.1-0.1,0-0.2-0.1-0.2c0,0,0,0,0-0.1c-0.1-0.1-0.1-0.4,0-0.7
		l0,0v-0.1c0.1-0.4,0-0.7,0.8-0.7c0.6,0,1,0,1.4-0.1c0.3,0,0.4,0,0.7-0.1c0.5-0.1,1.1-0.2,1.1-0.2S15.2,10.2,15.1,10.9 M15.2,10.6
		L15.2,10.6 M16.7,1.8c0.7,0,1.3,0,1.7,0c0.4,0,0.6,0,0.6,0s0.8-0.1,1.5,0.2c0.2,0,0.3,0.2,0.5,0.3c0.2,0.2,0.2,0.5,0.2,0.8
		c-0.3,1.6,0,3.6,0,4.4c0,0.5-0.1,1.7-0.2,2.8c-0.1,0.9-0.2,1.9-0.4,2.3c0,0.1-0.1,0.1-0.1,0.2c-0.4,1-0.5,2.4-0.4,3.6
		c0,1.3-0.5,13.5-0.5,13.5s-0.1,2.3-1,0.8c-0.1-0.2-0.3-0.5-0.4-0.8C17,27,16,26,16.2,22.2s0.4-10.2,0.6-10.7c0.3-0.5,0.3-2.9,0-4.9
		C16.5,4.7,16,3.3,16,2.9C15.8,2.6,15.3,1.8,16.7,1.8 M21.7,26.9L21.7,26.9c0.2-0.5,0.6-1,1-1.7c0.9-1.4,1.7-2.3,2.5-2.9
		c0.3-0.2,0.5-0.4,0.8-0.5c2.7-1.6,4.4,0.6,4.4,0.6s-3,1.5-4.4,3.7c-0.3,0.4-0.5,0.8-0.6,1.3c0,0.2-0.1,0.3-0.2,0.5
		c-0.7,1.6-2.6,2.6-3.5,2.9l0,0c-0.3,0.1-0.5,0.1-0.5,0C21.3,28.6,20.9,28.4,21.7,26.9C21,28.3,21.6,27.1,21.7,26.9 M22,14.2
		c0-0.6,0.3-0.9,0.3-1.5c0-0.4,0-0.8,0.4-0.8h2c0.2-0.1,0.4-0.1,0.6-0.1c0.3-0.1,0.5-0.1,0.8-0.2c1-0.2,1.8-0.3,3-0.3
		c0.6,0,0.8,0.6,1,1.3c0.3,0.8,0.4,1.3,0.4,2.2v0.8c-1.1-0.3-1.7-0.3-2.7-0.5c-0.7-0.1-1.2-0.2-1.7-0.3c-0.3,0-0.5-0.1-0.8-0.1
		s-0.7-0.1-1.1-0.1c-0.8,0-1.7-0.1-2.2,0.4C21.8,14.8,22,14.5,22,14.2 M22.2,9c0.1-0.5,0-0.7,0.2-1.1l0.1-3.4c0-0.4-0.4-0.8-0.2-0.9
		C22.7,3.4,24,4,25.2,5c0.3,0.2,0.5,0.4,0.8,0.7c1.2,1.1,2.2,2.5,2.3,3.6c0,0.2-1,0.1-1,0.1L26,9.8L25.2,10L24,10.2
		c0,0-1.6,0.2-1.8,0C21.9,9.9,22.2,9,22.2,9 M26,3.4c-0.2-0.2-0.5-0.5-0.8-0.7c-1.1-0.8-2.3-1.6-3.5-2l0,0c-0.2-0.1-0.5-0.2-0.7-0.3
		c-0.2,0-0.3-0.1-0.5-0.1c-0.6-0.2-1.3-0.3-2-0.3c-0.2,0-0.3,0-0.5,0c-2.1,0-4.1,0.6-5.9,1.7c-0.8,0.5-1.5,1.1-2.2,1.7l0,0
		C9.5,3.7,9.3,4,9.1,4.2C8.3,5.1,7.5,6.1,6.8,7.3l0,0c-2,3.5-3.3,7.9-3.3,12.7s1.2,9.2,3.3,12.7l0,0c0.7,1.2,1.5,2.2,2.3,3.1
		c0.2,0.2,0.5,0.5,0.7,0.7l0,0c0.7,0.7,1.4,1.2,2.2,1.7c1.8,1.1,3.8,1.7,5.9,1.7c0.2,0,0.4,0,0.5,0c0.7,0,1.4-0.1,2-0.3
		c0.2,0,0.3-0.1,0.5-0.1c0.3-0.1,0.5-0.1,0.7-0.3l0,0c1.2-0.5,2.4-1.2,3.5-2c0.3-0.2,0.5-0.4,0.8-0.7c3.8-3.6,6.4-9.7,6.4-16.6
		C32.3,13.1,29.8,7,26,3.4 M9.6,6.2C9.6,6.3,9.6,6.3,9.6,6.2"/>
</g>
<path d="M101.3,22.5l0,0.1c-0.3,1.3-1,3.5-2.3,4.2c0,0-0.1,0-0.1,0.1c-0.4,0.2-0.8,0.2-1.2,0.2c-0.1,0-0.2,0-0.2-0.1
	c-0.7-0.3-1-1.3-1-1.9c-0.2-1.2,0-2.6,0.3-3.7c0.3-1.3,1-3.5,2.3-4.3c0,0,0.1,0,0.2-0.1c0.4-0.2,0.8-0.2,1.1-0.1
	c0.7,0.2,1.1,1.1,1.2,1.8C101.7,19.9,101.6,21.3,101.3,22.5 M102.4,16c-0.3-0.3-0.7-0.5-1.2-0.6c-0.7-0.2-1.5-0.1-2.2,0.3
	c0,0-0.1,0-0.1,0.1c-1.8,1-3.1,3.1-3.7,5c-0.3,1-0.6,2.2-0.6,3.3v0.8c0.1,1.6,0.7,3.1,2.4,3.8c0.7,0.3,1.5,0.1,2.2-0.3
	c0,0,0.1,0,0.2-0.1c1.8-1,3.2-3.1,3.7-5C103.5,21.2,104.2,17.6,102.4,16 M117.1,15.3h-2.3c0.2-1.5,0.4-2.9,0.5-4.4
	c0-0.6,0.5-0.8,1-0.8c0.4,0,0.9,0,1.3,0.1l0.4,0.1V8.4l-0.3,0c-1.9-0.2-3.2,0.8-4,2.4c-0.5,1.1-0.9,2.6-0.9,3.8
	c0,0.7-0.6,1.1-1.3,1.1l-0.3,0v0.9h1.4c-0.3,2.5-0.5,5-0.8,7.5c-0.2,1.5-0.3,3.1-0.5,4.6c-0.1,1-0.2,1.9-0.4,2.9
	c-0.2,1.2-1.1,2.6-2.1,3.4l-0.1,0.1v0.9l0.3,0c1.1-0.1,2-0.7,2.7-1.6c0.7-1,1.2-2.5,1.4-3.7c0.6-4.7,1.1-9.4,1.7-14h2.5L117.1,15.3
	L117.1,15.3z M91.4,23.2c-0.6,1.2-1.3,2.3-2,2.9c-0.8,0.8-1.7,1.2-2.3,0.9c-1.1-0.6-1-3.2,0.3-5.9c0.6-1.2,1.3-2.3,2-3
	c0.9-0.8,1.7-1.2,2.3-0.9C92.8,17.9,92.7,20.5,91.4,23.2 M91.5,23.1c0-0.1,0-0.1,0.1-0.2C91.6,23,91.5,23.1,91.5,23.1 M92.7,15.6
	c-1.1-0.5-2.3,0.2-3.2,0.9c-0.1,0.1-0.2,0.2-0.3,0.3c-0.8,0.8-1.5,1.7-2.1,2.6c0.1-1.2,0.3-2.4,0.4-3.6c0.2-1.2-0.3-0.5-0.8-0.3
	c-0.6,0.3-2,0.6-2.4,0.7l-0.2,0v1l0.3-0.1c0.3,0,0.6-0.1,1-0.2c-0.3,3-0.7,6-1.1,9.1c-0.2,2-0.5,4-0.7,6.1c-0.2,1.1-0.3,2.2-0.4,3.3
	l0,0.4l0.4-0.1c0.4-0.1,0.8-0.2,1.2-0.2l0.2,0l0-0.2c0.2-1.8,0.5-3.5,0.8-5.3c0.1-0.5,0.2-1,0.3-1.5c1.1,0.6,2.4,0,3.4-0.7l0,0
	c1.3-1,2.5-2.6,3.2-4.2c0.7-1.5,1.3-3.3,1.3-5C94,17.6,93.8,16.1,92.7,15.6 M122.4,19.2c-0.2,0.5-1,1.5-2.1,2.3l0,0
	c-0.7,0.5-1.5,1-2.3,1.2c0.2-3.4,1.2-4.2,1.4-4.5c0.2-0.4,0.6-0.7,0.9-0.9l0,0c0.6-0.4,1.2-0.5,1.6-0.3
	C122.6,17.3,122.8,18.2,122.4,19.2 M123.5,15.6c-0.1-0.1-0.3-0.2-0.4-0.2c-1-0.4-2-0.1-2.9,0.4c-0.1,0-0.2,0.1-0.3,0.2
	c-1.5,1-2.7,2.9-3.3,4.6c-0.5,1.2-0.8,2.5-0.8,3.7v0.3c0,0.2,0,0.5,0,0.7c0.1,1.2,0.6,2.5,1.6,3.2c0.2,0.1,0.3,0.2,0.5,0.2
	c0.7,0.3,1.5,0.1,2.2-0.2h0c1.2-0.6,2.6-1.9,3.3-3.1l0.2-0.3l-0.3-0.2c-0.1-0.1-0.3-0.2-0.4-0.3l-0.2-0.2l-0.2,0.2
	c-0.6,0.7-1.6,1.6-2.5,2.1c-0.1,0-0.2,0.1-0.2,0.1h0c-1.3,0.6-1.7-0.3-1.9-1.4c-0.1-0.5-0.1-1.2-0.1-1.8c0.8-0.2,1.5-0.5,2.2-1h0
	c1.6-0.8,3.1-2.2,3.8-3.9c0.2-0.4,0.3-0.9,0.3-1.4v0C124.3,16.7,124.1,16,123.5,15.6 M119.4,18.1L119.4,18.1L119.4,18.1 M119.3,18.2
	C119.3,18.2,119.3,18.2,119.3,18.2C119.3,18.2,119.3,18.2,119.3,18.2 M83.8,26.1c0.2-0.2,0.3-0.3,0.2-0.6c-0.2-0.3-0.5-0.1-0.7,0.1
	c-0.4,0.2-0.7,0.5-1.1,0.7c-0.2,0.2-1.3,0.9-1.6,0.7c-0.2-0.1-0.1-0.8-0.1-0.9c0.1-0.6,0.2-1.3,0.3-2c0-0.4,0-0.8,0.1-1.1
	c0-0.3,0.1-0.6,0.2-1c0.2-1.2,0.4-2.4,0.6-3.6c0.1-0.8,0.2-2.4-0.7-2.8c-0.6-0.3-1.3,0.1-1.7,0.5c-0.9,0.7-1.7,1.9-2.3,2.9
	c-0.2,0.3-0.3,0.6-0.5,1c-0.2,0.5-0.5,1-0.7,1.5c-0.2,0.4-0.3,0.7-0.5,1.1c0.1-0.8,0.2-1.5,0.2-2.3c0.1-1,0.2-2.1,0.3-3.1
	c0-0.5-0.1-1.2-0.6-1.5c-1-0.6-2.3,0.5-3,1.1c-0.7,0.7-1.3,1.8-1.8,2.6c-0.4,0.7-0.8,1.5-1.2,2.3c0.1-0.8,0.2-1.7,0.3-2.5
	c0.1-0.7,0.2-1.5,0.3-2.2c0-0.4,0.1-0.8,0.2-1.1c0.1-0.7-0.1-0.7-0.6-0.3c-0.5,0.3-2,0.7-2.4,0.8l-0.2,0v0.9l0.3,0
	c0.3,0,0.6-0.1,0.9-0.2c-0.4,3.7-0.8,7.4-1.2,11.1l0,0.3l0.3,0c0.4,0,0.7,0,1.1-0.1h0.2l0-0.2c0.3-1,0.6-1.9,0.9-2.9
	c0.4-1,0.8-2.1,1.1-3.1c0.2-0.4,0.4-0.9,0.6-1.3c0.6-1.1,1.3-2.1,2.1-3.1c0.1-0.1,0.4-0.5,0.6-0.5c0.2,0.2,0.1,1.3,0.1,1.5
	c0,0.4-0.1,0.8-0.2,1.2c0,0.2-0.1,0.5-0.1,0.6c0,0.4-0.1,0.8-0.2,1.2c-0.1,0.8-0.2,1.7-0.3,2.6c-0.2,1.3-0.3,2.6-0.5,3.8l0,0.3h0.3
	c0.4,0,0.9-0.1,1.3-0.2l0.1,0l0-0.1c0.2-0.4,0.4-1.1,0.5-1.5c0.1-0.5,0.3-1.1,0.5-1.6c0.2-0.4,0.4-0.8,0.5-1.3
	c0.1-0.2,0.2-0.5,0.3-0.8c0.2-0.4,0.5-1,0.7-1.4c0.6-1.1,1.2-2.2,1.9-3.2c0.1-0.2,0.7-1,1-1c0.1,0.1,0.2,0.7,0.2,0.9
	c-0.4,2.6-0.8,5.2-1.2,7.8c-0.3,2.3,0.7,3,2.6,1.9c0.5-0.3,1.1-0.7,1.5-1.1c0.2-0.2,0.4-0.3,0.6-0.5C83.5,26.4,83.6,26.3,83.8,26.1
	 M62.5,18.6c-0.3,0.8-1.6,4.1-2.8,6.3l0,0c-0.5,0.9-1,1.6-1.5,1.8c-1.4,0.9-1.8-0.4-1.5-3.2c0.2-2.8,2-5.2,2.8-5.8
	c0,0,0.1-0.1,0.2-0.1c1-0.6,2.9-0.3,2.9-0.3S62.8,17.3,62.5,18.6 M62.5,18.5c0,0,0-0.1,0-0.2C62.5,18.5,62.5,18.5,62.5,18.5
	 M64.7,26.3l-0.2-0.2l-0.2,0.2c-0.1,0.2-0.6,0.6-0.9,0.6c-0.2-0.1-0.2-1-0.2-1.1c0.1-1.5,0.3-3.1,0.5-4.6c0.2-1.9,0.5-3.7,0.7-5.6
	c0.1-0.7-1-0.1-1.3,0.2c0,0-0.1,0-0.1,0c-0.8-0.4-2-0.3-2.9,0c-0.2,0.1-0.4,0.2-0.6,0.3c-0.1,0-0.2,0.1-0.2,0.2
	c-2.6,1.5-3.8,4.3-4.4,7.1c-0.2,1.2-0.4,2.7,0.1,3.9c0.3,0.7,0.8,1.3,1.7,1.4c0.7,0.1,1.4-0.2,1.9-0.6c0.3-0.3,0.6-0.6,0.9-1
	c0-0.1,0.1-0.1,0.2-0.2c0.7-1,1.3-2.1,1.9-3.3c-0.1,0.8-0.1,1.7-0.1,2c-0.1,0.4-0.1,1.1,0,1.5c0.1,0.5,0.2,1.1,0.6,1.5
	s1,0.2,1.4-0.1c0.6-0.3,1.4-0.9,1.6-1.5l0-0.1l-0.1-0.1C65,26.6,64.8,26.4,64.7,26.3 M53.8,25.4l0-0.5l-0.4,0.3
	c-1.8,1.2-4,1.8-6.1,1.3c-2.7-0.5-4.8-2.4-5.9-4.9c-1.5-3.3-1.3-6.9,1.5-9.5c1.1-1,2.4-1.6,3.8-1.9c1.2-0.2,2.6-0.1,3.7,0.5
	c1.2,0.7,1.9,1.9,2.1,3.3v0v0c0.1,0.3,0.5,0.3,0.7,0.2l0.2-0.1V10l-0.2-0.1c-1.6-1-3.3-1.4-5.1-1.4c-5.5,0-10,4.5-10,10
	c0,5.5,4.5,10.1,10,10.1c1.6,0,4.2-1,5.6-1.8l0.2-0.1l0-0.2C53.8,26.2,53.8,25.8,53.8,25.4"/>
</svg>
