<?xml version="1.0" encoding="utf-8"?>
<!-- Generator: Adobe Illustrator 26.2.1, SVG Export Plug-In . SVG Version: 6.00 Build 0)  -->
<svg version="1.1" id="Capa_1" xmlns="http://www.w3.org/2000/svg" xmlns:xlink="http://www.w3.org/1999/xlink" x="0px" y="0px"
	 viewBox="0 0 18 24" style="enable-background:new 0 0 18 24;" xml:space="preserve">
<style type="text/css">
	.st0{fill:#0E4E90;}
	.st1{fill:none;}
</style>
<path class="st0" d="M3.8,8.5h10.4c0.2,0,0.3-0.2,0.3-0.3c0-0.2-0.2-0.3-0.3-0.3H3.8c-0.2,0-0.3,0.2-0.3,0.3S3.6,8.5,3.8,8.5
	L3.8,8.5z"/>
<path class="st0" d="M3.8,10.5h10.4c0.2,0,0.3-0.2,0.3-0.3c0-0.2-0.2-0.3-0.3-0.3H3.8c-0.2,0-0.3,0.2-0.3,0.3
	C3.5,10.4,3.6,10.5,3.8,10.5L3.8,10.5z"/>
<path class="st0" d="M9,6H3.7C3.6,6,3.5,6.1,3.5,6.3c0,0.2,0.1,0.3,0.3,0.3H9c0.1,0,0.3-0.2,0.3-0.3S9.1,6,9,6L9,6z"/>
<g>
	<polygon class="st1" points="13.9,3.8 11.9,1.6 11.9,6 15.9,6 	"/>
	<path class="st1" d="M16.5,6.9h-5c-0.2,0-0.4-0.2-0.4-0.5V0.9H1.5V23H9l0,0h7.5v-5v-3.2V6.9z"/>
	<path class="st0" d="M17.3,6.5C17.4,6.5,17.4,6.5,17.3,6.5c0-0.2-0.1-0.3-0.2-0.4l-5.4-5.9l-0.1-0.1l0,0l0,0h-0.1h-0.1H1.1
		C0.8,0,0.6,0.2,0.6,0.5v23.1c0,0.3,0.2,0.5,0.4,0.5h8h5.1h2.8c0.2,0,0.4-0.2,0.4-0.5V15l0,0V6.5z M11.9,1.6l2,2.2l2,2.2h-4V1.6z
		 M16.5,23.1H9l0,0H1.5V0.9h9.6v5.5c0,0.3,0.2,0.5,0.4,0.5h5v8v3.2V23.1z"/>
</g>
<g>
	<path class="st0" d="M9.7,17.8c0,0.4-0.1,0.7-0.2,1.1c-0.1,0.3-0.4,0.6-0.6,0.8c-0.3,0.2-0.6,0.4-0.9,0.5c-0.4,0.1-0.8,0.2-1.2,0.2
		c-0.6,0-1.2-0.1-1.8-0.3c-0.3-0.1-0.6-0.3-0.9-0.4c-0.4-0.3-0.5-0.9-0.2-1.2h0C4,18,4.5,17.9,4.8,18.2c0.2,0.1,0.4,0.2,0.6,0.3
		c0.4,0.2,0.8,0.3,1.3,0.3c0.3,0,0.6-0.1,0.9-0.2c0.2-0.1,0.3-0.3,0.3-0.6v0c0-0.1,0-0.2-0.1-0.3c-0.1-0.1-0.1-0.2-0.2-0.3
		c-0.2-0.1-0.3-0.2-0.5-0.2C6.8,17,6.5,17,6.2,16.9c-0.4-0.1-0.8-0.2-1.1-0.3c-0.2-0.1-0.4-0.2-0.6-0.3c-0.4-0.3-0.8-0.6-0.9-1.1
		c-0.1-0.2-0.1-0.5-0.1-0.8v0c0-0.3,0.1-0.7,0.2-1c0.1-0.3,0.3-0.6,0.6-0.8c0.3-0.2,0.6-0.4,0.9-0.5C5.6,12,6,11.9,6.4,11.9
		c0.6,0,1.1,0.1,1.7,0.3c0.5,0.2,1,0.4,1.4,0.8l-0.9,1.4c-0.3-0.2-0.7-0.4-1.1-0.6c-0.3-0.1-0.7-0.2-1.1-0.2c-0.3,0-0.6,0.1-0.8,0.2
		c-0.2,0.1-0.3,0.3-0.3,0.5v0c0,0.1,0,0.2,0.1,0.3c0.1,0.1,0.2,0.2,0.3,0.3C5.8,14.9,6,15,6.2,15.1c0.2,0.1,0.5,0.2,0.9,0.2
		c0.4,0.1,0.7,0.2,1.1,0.4c0.2,0.1,0.4,0.2,0.6,0.3c0.4,0.3,0.7,0.6,0.8,1.1C9.6,17.3,9.7,17.5,9.7,17.8L9.7,17.8z"/>
	<polygon class="st0" points="11.9,21.6 10.1,21.6 12.7,11.9 14.5,11.9 	"/>
</g>
</svg>
