<svg xmlns="http://www.w3.org/2000/svg" xmlns:xlink="http://www.w3.org/1999/xlink" width="158.75" height="158.75" viewBox="0 0 158.75 158.75"><defs><style>.a{fill:none;}.b{fill:#ebf3fa;}.c{clip-path:url(#c);}.d{fill:#ffb27d;}.e{fill:url(#e);}.f{fill:#efa26f;}.g{fill:#ffc197;}.h{fill:#27aae1;}.i{fill:#c0d8fb;}.j{fill:#cbe1fd;}.k{fill:url(#l);}.l{fill:#ffd3b6;}.m{fill:#fff;}.n{fill:#008143;}.o{fill:#ffdc00;}.p{fill:#005ca8;}.q{fill:#e7412b;}.r{fill:#00151d;}.s{filter:url(#a);}</style><filter id="a" x="0" y="0" width="158.75" height="158.75" filterUnits="userSpaceOnUse"><feOffset dy="2" input="SourceAlpha"/><feGaussianBlur stdDeviation="1.5" result="b"/><feFlood flood-opacity="0.259"/><feComposite operator="in" in2="b"/><feComposite in="SourceGraphic"/></filter><clipPath id="c"><circle class="a" cx="75" cy="75" r="75"/></clipPath><linearGradient id="e" y1="-2.942" x2="1" y2="-2.942" gradientUnits="objectBoundingBox"><stop offset="0" stop-color="#0073c7"/><stop offset="0.131" stop-color="#006bbe"/></linearGradient><linearGradient id="l" x1="0.001" y1="-5.254" x2="1.003" y2="-5.254" gradientUnits="objectBoundingBox"><stop offset="0.002" stop-color="#003f6e"/><stop offset="1" stop-color="#000e24"/></linearGradient></defs><g transform="translate(-198.625 -3379.625)"><g transform="translate(115.461 2932.164)"><g class="s" transform="matrix(1, 0, 0, 1, 83.16, 447.46)"><circle class="b" cx="74.875" cy="74.875" r="74.875" transform="translate(4.5 2.5)"/></g><g transform="translate(87.539 449.836)"><g class="c"><path class="d" d="M190.164,542.586s-7,14-14,23.625c-2.875,3.875-5.625,7-8.125,8.25a17.981,17.981,0,0,0-6,5.5,45.288,45.288,0,0,0-6.251,12.875l-18.25-27.375s.625-26.75,2.75-31.25c3.25-6.625,4.75-19.75,6-22.375.874-2,3.5-12,3.75-12.75.124-.375,1-.75,2.125-.75a3.225,3.225,0,0,1,2.75,2.625,30.267,30.267,0,0,1-.375,15.125c.625,6.875-1.376,12,.124,13.375a.389.389,0,0,0,.251-.125c2.5-1.625,18-24.25,19.875-24.625C176.789,504.211,190.164,542.586,190.164,542.586Z" transform="translate(-100.039 -461.961)"/></g><g class="c"><path class="e" d="M153.5,612.878s-.25,25-1,41.375L106.872,641.5c10.5-22.25,19.5-41,19.5-41S152.372,601.253,153.5,612.878Z" transform="translate(-92.372 -487.503)"/></g><g class="c"><path class="d" d="M222.7,492.164l-5.625,8.25-5.5,8.125a1.526,1.526,0,0,1-1.125.5c-1.375-.125-3-2-4.249-3.125l-.125-.125a4.084,4.084,0,0,1-.5-5.625l8.375-10.125h0l2.5-3a4.084,4.084,0,0,1,5.625-.5l.125.125A3.73,3.73,0,0,1,222.7,492.164Z" transform="translate(-116.825 -458.789)"/></g><g class="c"><path class="f" d="M219.164,501.878l-5.5,8.125a1.526,1.526,0,0,1-1.125.5l3.5-19C216.039,491.628,216.664,500.128,219.164,501.878Z" transform="translate(-118.789 -460.253)"/></g><g class="c"><path class="f" d="M181.4,588.128c-2.875,3.875-5.625,7-8.125,8.25a17.978,17.978,0,0,0-6,5.5c-1.875-.875-4.125-1.875-6.25-3a3.465,3.465,0,0,1-.125-6.25h.125c2.374-1.375,4.75-6.125,4.75-6.125Z" transform="translate(-105.403 -484.003)"/></g><g class="c"><path class="g" d="M153.539,499.836l-1.5,5.875a3.325,3.325,0,0,0,2.125.125C155.039,505.461,155.664,500.211,153.539,499.836Z" transform="translate(-103.664 -462.336)"/></g><g class="c"><g transform="translate(54.875 26.375)"><path class="h" d="M198.081,565.628h-32a5.335,5.335,0,0,1-5.374-5.375V490.378A5.335,5.335,0,0,1,166.08,485h32a5.336,5.336,0,0,1,5.375,5.375v69.875A5.335,5.335,0,0,1,198.081,565.628Z" transform="translate(-160.706 -485.003)"/><g transform="translate(2.125 2)"><path class="i" d="M202.164,491.8v67.75a4.162,4.162,0,0,1-4.125,4.125H167.664a4.162,4.162,0,0,1-4.125-4.125V491.8a4.162,4.162,0,0,1,4.125-4.125h30.25A4.189,4.189,0,0,1,202.164,491.8Z" transform="translate(-163.539 -487.67)"/><path class="j" d="M197.914,487.67l-29.875,76.125h-.375a4.162,4.162,0,0,1-4.125-4.125V491.8a4.162,4.162,0,0,1,4.125-4.125Z" transform="translate(-163.539 -487.67)"/></g><path class="h" d="M192.747,489.67H180.372a1.975,1.975,0,0,1-2-2h0a1.974,1.974,0,0,1,2-2h12.375a1.974,1.974,0,0,1,2,2h0A1.975,1.975,0,0,1,192.747,489.67Z" transform="translate(-165.123 -485.17)"/></g></g><g class="c"><path class="k" d="M126.872,608.753s8.875,8.5,15,11.875l4.5-3.25v4.75s9,1.625,11.75,0v-13L133,596.5Z" transform="translate(-97.372 -486.503)"/></g><g class="c"><path class="j" d="M159.039,618.628c-3.5.75-11-2-11-2L149.289,605l-8.5,9.625c-4.249-1.625-11-5.75-15-8.375a37.619,37.619,0,0,1-3.25-2.25c5.625-9.125,11.25-17.5,11.25-17.5,1.625,3.375,5.625,6.25,9.875,8.5a83.708,83.708,0,0,0,15.125,6.125C158.789,608,159.039,618.628,159.039,618.628Z" transform="translate(-96.289 -484.003)"/></g><g class="c"><path class="f" d="M159.473,553.586s-1.25-10.875-2.375-13-2.125-6.375-.375-9.5,2.375-9.25,2.375-9.25c.625,6.875-1.376,12,.124,13.375a.388.388,0,0,0,.251-.125Z" transform="translate(-104.598 -467.836)"/></g><g class="c"><path class="l" d="M209.681,554.42a15.818,15.818,0,0,1-1.5-2.875,1.056,1.056,0,0,1,.25-1.125,4,4,0,0,1,.75-.875.948.948,0,0,1,.5-.25,1.589,1.589,0,0,1,.75-.125.687.687,0,0,1,.625.375h0a26.712,26.712,0,0,1,1.625,2.75,1.482,1.482,0,0,1-.251,1.75l-.25.125-1.125.75C210.681,555.294,210.056,555.045,209.681,554.42Z" transform="translate(-117.681 -474.67)"/></g><g class="c"><path class="f" d="M242.039,641.378l-10,5.125h-6.625c-1.625-1.125-10-6.75-13.376-11-.75-.875-3.375-8.625-5.5-15h0c.25.875,6,13,7.625,14.5,1.624,1.375,10.249,9.5,12.625,9.375,2.25,0,14.5-2.875,15.25-3Z" transform="translate(-117.289 -492.503)"/></g><g class="c"><path class="m" d="M139.534,614.711a1.375,1.375,0,1,1,1.375,1.375A1.247,1.247,0,0,1,139.534,614.711Z" transform="translate(-100.534 -490.711)"/></g><g transform="translate(58.308 48.871)"><path class="n" d="M188,537.085a16.462,16.462,0,0,0,1.625-1.093,6.436,6.436,0,0,0,1.7-2.146,3.757,3.757,0,0,1,.815-1.35c.179-.224.486-.674.612-.85A8.679,8.679,0,0,1,194,530.273a4.431,4.431,0,0,1,1.269-.449,7.942,7.942,0,0,1-.682,2.873,11.046,11.046,0,0,1-1.988,2.938,4.746,4.746,0,0,1-2.77,1.53,3.452,3.452,0,0,1-1.826-.08h0" transform="translate(-170.961 -518.703)"/><path class="n" d="M195.966,528.576a2.867,2.867,0,0,0-1.445-.623,1.979,1.979,0,0,0-1.834.749c-.355.274-1.4,1.249-1.85,1.654a13.289,13.289,0,0,0-.08,3.042c0,.027,1.12-.225,1.393-.273.308-.323.712-1.148,1.068-1.627.384-.4.892-1.1,1.351-1.622l1.374-.571Z" transform="translate(-171.639 -518.232)"/><path class="o" d="M189.338,515.36a2.667,2.667,0,0,1,.718.148.8.8,0,0,1,.475.4l.022.075c.334.6-.077,2.42-.077,2.8,0,.427-.2,2.223-.268,2.574a7.948,7.948,0,0,0-.234,1.65c0,.275-.023,1.871-.071,3.365s.022,3.728-.031,3.876c0,0-.4.049-.554.049-.06,0-.537-.049-.919-.727a9.976,9.976,0,0,1-.914-2.02c-.055-.472,0-1.151,0-1.8,0-1.751.224-5.171.224-5.277,0-.075-.023-.523-.049-.947,0-.377.076-.771.049-1.1-.1-.777-.459-1.675-.459-1.849,0-.22-.4-1.144.514-1.1a4.319,4.319,0,0,1,1.576-.127h0" transform="translate(-170.753 -515.081)"/><path class="p" d="M185.934,515.829c-.836.078-3.311,2.25-3.235,2.9,0,.2.307.751.307,1,.153.1.127,1,.327.952l.79-.624.717-.029a7.43,7.43,0,0,0,1.7-.343l.049-.679a4.248,4.248,0,0,0-.049-.821c0-.406-.41-1.073-.41-1.457,0-.091.026-.862-.2-.9h0" transform="translate(-169.637 -515.206)"/><path class="q" d="M191.6,516.114a17.293,17.293,0,0,0-.1,2.917c-.071.208-.147,1.605-.147,1.605s1.193-.056,1.241-.056l1.528-.344a10.2,10.2,0,0,0,1.094-.1,4.833,4.833,0,0,0-1.268-2.392c-.838-.979-2.091-1.779-2.344-1.626h0" transform="translate(-171.799 -515.26)"/><path class="o" d="M190.845,524.07c0,.05,1.521-.18,1.6-.18.657,0,1.194.055,1.758.1a16.24,16.24,0,0,1,1.707.472c0-.472-.514-2.971-.848-2.971a10.292,10.292,0,0,0-2.462.328L191.2,522c-.023.125-.356,1.926-.356,2.072h0" transform="translate(-171.674 -516.622)"/><path class="p" d="M190.877,524.863l-.1,4.62v.5l.031-.026a1.323,1.323,0,0,1,.329-.647,15.928,15.928,0,0,0,1.289-1.122,2.6,2.6,0,0,1,2.135-1.05,7.956,7.956,0,0,1,1.373.574c.263,0,.155-2.222-.044-2.474a8.921,8.921,0,0,0-2.55-.553,8.446,8.446,0,0,0-2.462.18h0" transform="translate(-171.656 -517.415)"/><path class="n" d="M190.076,533.923a7.221,7.221,0,0,1-1.981.4c-.5-.027-.941-.623-1.067-1a13.033,13.033,0,0,0-.788-1.771,4.617,4.617,0,0,0-1.987.847c-.941.624-2.141,1.451-2.063,1.6,0,0,1.253,2.249,2.5,2.851.433.2,1.121.745,1.834.665a9.524,9.524,0,0,0,2.342-1.618,10.416,10.416,0,0,0,1.215-1.976" transform="translate(-169.509 -519.135)"/><path class="n" d="M181.754,533.1c.541-.378,2.09-1.5,2.375-1.724a2.808,2.808,0,0,1-.767-1.7,10.141,10.141,0,0,0-.362-1.149c-.022-.073-.329.1-.428.1-.153,0-.486-.155-.64-.155a6.81,6.81,0,0,1-1.345-.423c-.1-.048.027.423.027.8s.225,1.532.225,1.7c0,.127.892,2.574.915,2.551h0" transform="translate(-169.099 -518.262)"/><path class="q" d="M182.949,526.512c-.1.3-2.058-.329-2.414-.505l-.1-.77a13.131,13.131,0,0,0,.2-1.626,9.6,9.6,0,0,1,.607-2.347c.153-.225.717-1.5.871-1.5.483.073.329,1.246.53,1.626a4.447,4.447,0,0,1,.281,2.172,4.555,4.555,0,0,0-.154,2,3.818,3.818,0,0,1,.181.953h0" transform="translate(-169.07 -516.189)"/><path class="p" d="M184.773,524.261s-.992-.5-1.068-.2a6.3,6.3,0,0,0-.027,3.355c.459,1.469.355,1.741.564,2.069.152.274.377,1,.5.9a17.726,17.726,0,0,0,1.812-.723c-.055-.749.07-3.173.07-3.442.023-.706.237-1.332.083-1.478a1.785,1.785,0,0,0-.843-.127,10.909,10.909,0,0,1-1.094-.35" transform="translate(-169.826 -517.239)"/><path class="o" d="M186.729,520.968a.836.836,0,0,1,.133.694c-.029.3-.133,1.024-.133,1.451l-.022.853a5.353,5.353,0,0,1-1.024-.131c-.481-.147-1.472-.494-1.5-.494s-.556.044-.556-.229c0-.3-.232-.8-.176-1.1.02-.145.273-.7.731-.7a6.438,6.438,0,0,0,1.068-.047c.258-.044,1.478-.3,1.478-.3" transform="translate(-169.823 -516.49)"/><path class="q" d="M188.892,522.447s.081-.247.262-.247c.088,0,.218.093.312.324a2.872,2.872,0,0,1,.306.951,2.75,2.75,0,0,1-.158.658.509.509,0,0,1-.284.394.287.287,0,0,1-.287-.164c-.043-.115-.267-.409-.332-.613a.829.829,0,0,1,.02-.749c.045-.159.16-.553.16-.553" transform="translate(-171.121 -516.799)"/><path class="r" d="M191.115,545.846l-.011.049a2.843,2.843,0,0,1-.941,1.708.187.187,0,0,1-.049.026.817.817,0,0,1-.481.078.417.417,0,0,1-.093-.03c-.275-.107-.389-.525-.427-.787a3.968,3.968,0,0,1,.1-1.521,2.991,2.991,0,0,1,.947-1.75.249.249,0,0,1,.056-.029.666.666,0,0,1,.469-.048c.3.059.444.461.5.722a3.6,3.6,0,0,1-.072,1.582m.428-2.665a1.119,1.119,0,0,0-.488-.263,1.3,1.3,0,0,0-.893.1c-.016.011-.038.02-.053.029a3.613,3.613,0,0,0-1.534,2.053,5.482,5.482,0,0,0-.263,1.363v.317a1.625,1.625,0,0,0,.968,1.544,1.016,1.016,0,0,0,.881-.106c.023-.009.039-.022.06-.031a3.7,3.7,0,0,0,1.532-2.047c.275-.83.538-2.287-.212-2.96m6.018-.279h-.941c.078-.592.159-1.193.215-1.791.015-.236.18-.323.4-.344a1.719,1.719,0,0,1,.53.054l.153.043V540.1l-.109-.016a1.592,1.592,0,0,0-1.653.985,4.129,4.129,0,0,0-.377,1.555.453.453,0,0,1-.52.453l-.132-.01v.351h.558c-.109,1.023-.224,2.041-.338,3.064-.073.624-.143,1.246-.22,1.87-.049.391-.093.8-.164,1.176a2.383,2.383,0,0,1-.868,1.371l-.05.037v.356l.125-.01a1.444,1.444,0,0,0,1.09-.647,3.658,3.658,0,0,0,.568-1.5c.23-1.909.465-3.826.7-5.736h1.034Zm-10.475,3.233a4.326,4.326,0,0,1-.821,1.205c-.345.337-.679.491-.919.367-.458-.232-.4-1.3.11-2.394a4.489,4.489,0,0,1,.809-1.214c.351-.345.689-.5.931-.372.437.229.4,1.3-.11,2.408m.023-.047.034-.076-.034.076m.475-3.084a1.291,1.291,0,0,0-1.319.377,1.746,1.746,0,0,0-.132.126,5.156,5.156,0,0,0-.836,1.078c.055-.492.11-.985.163-1.472s-.125-.224-.338-.126a6.6,6.6,0,0,1-.958.295l-.093.023v.406l.143-.029c.131-.021.262-.047.394-.07q-.212,1.848-.433,3.706c-.1.824-.191,1.652-.289,2.477-.055.45-.1.905-.17,1.354l-.021.17.163-.038c.158-.035.316-.067.476-.1l.081-.014.017-.083q.147-1.083.345-2.167c.033-.2.065-.393.11-.586a1.327,1.327,0,0,0,1.378-.289l.023-.01a4.859,4.859,0,0,0,1.307-1.7,5.079,5.079,0,0,0,.537-2.042,1.344,1.344,0,0,0-.548-1.28m12.138,1.468a2.654,2.654,0,0,1-.858.946v0a2.96,2.96,0,0,1-.947.482,2.666,2.666,0,0,1,.581-1.861,1.386,1.386,0,0,1,.366-.373v0a.725.725,0,0,1,.668-.122.694.694,0,0,1,.19.926m.473-1.46a.509.509,0,0,0-.165-.094,1.335,1.335,0,0,0-1.165.157,1.23,1.23,0,0,0-.11.073,4.014,4.014,0,0,0-1.351,1.866,4.558,4.558,0,0,0-.324,1.531v.13c.006.1.01.189.018.276a1.642,1.642,0,0,0,.672,1.292,1.438,1.438,0,0,0,.2.086,1.173,1.173,0,0,0,.9-.1l.01-.005a4.113,4.113,0,0,0,1.358-1.242l.076-.1-.109-.067c-.053-.032-.108-.07-.169-.1l-.082-.055-.065.075a4.373,4.373,0,0,1-1.018.865c-.028.012-.055.028-.081.039l-.012.005c-.514.235-.7-.109-.784-.575a3.438,3.438,0,0,1-.032-.745,4.954,4.954,0,0,0,.908-.382l.016,0a3.167,3.167,0,0,0,1.538-1.6,1.738,1.738,0,0,0,.1-.562v-.022a.86.86,0,0,0-.328-.733m-1.7,1.033a.032.032,0,0,0-.007.008.031.031,0,0,1,.007-.008m-.035.047-.011.014.011-.014m-14.5,3.231c.059-.06.142-.142.077-.233-.077-.112-.208-.025-.29.026-.148.086-.29.185-.434.278-.076.055-.536.361-.64.278-.06-.049-.038-.305-.032-.377.027-.269.083-.538.115-.8.012-.153.022-.316.044-.47.022-.13.049-.268.072-.4.081-.493.158-.986.235-1.477.049-.328.076-.963-.278-1.145-.248-.126-.521.043-.707.2a5.2,5.2,0,0,0-.952,1.194c-.071.12-.137.261-.2.388-.1.2-.2.411-.3.613-.069.149-.143.3-.213.449.028-.306.054-.614.081-.914q.06-.632.11-1.264a.644.644,0,0,0-.23-.609c-.382-.234-.952.192-1.215.451a5.032,5.032,0,0,0-.727,1.078c-.165.3-.329.618-.477.942.039-.344.077-.685.115-1.028.034-.3.071-.6.1-.905.023-.152.038-.312.061-.465.049-.29-.05-.274-.263-.137a5.182,5.182,0,0,1-.984.341l-.094.021v.356l.143-.023c.121-.015.242-.038.36-.059q-.252,2.273-.5,4.537l-.016.148.143-.016c.153-.011.3-.021.454-.04l.076-.005.022-.077c.127-.394.253-.781.374-1.177.159-.419.316-.836.476-1.258a4.79,4.79,0,0,1,.251-.514,8.381,8.381,0,0,1,.865-1.247c.033-.041.176-.2.242-.208a1.645,1.645,0,0,1,.027.623c-.016.169-.038.335-.066.5-.005.056-.038.187-.038.246-.017.165-.044.336-.061.5-.044.35-.087.7-.124,1.045-.062.52-.128,1.041-.187,1.561l-.017.136h.132a2.179,2.179,0,0,0,.526-.071l.049-.01.022-.038a1.739,1.739,0,0,0,.181-.62,4.664,4.664,0,0,1,.224-.656c.072-.17.149-.339.22-.516a1.876,1.876,0,0,0,.114-.3,4.65,4.65,0,0,1,.275-.576,14.863,14.863,0,0,1,.781-1.312c.044-.065.3-.421.395-.428a.816.816,0,0,1,.055.352c-.159,1.056-.317,2.117-.475,3.174-.132.946.284,1.237,1.078.762a4.355,4.355,0,0,0,.623-.467c.082-.065.158-.133.242-.2a1.638,1.638,0,0,0,.159-.14m-8.7-3.092a17.515,17.515,0,0,1-1.16,2.55v.005a2.4,2.4,0,0,1-.6.755c-.582.359-.722-.175-.6-1.319a3.909,3.909,0,0,1,1.139-2.377c.017-.01.038-.027.06-.044a2.039,2.039,0,0,1,1.177-.115s.141.023-.016.543m0-.009c0-.01.01-.032.018-.059-.007.02-.011.038-.018.059m.912,3.176-.088-.058-.072.075c-.053.06-.272.257-.365.23s-.073-.393-.066-.452c.044-.626.124-1.255.2-1.873q.14-1.142.3-2.272c.038-.3-.427-.044-.532.07-.01-.006-.026-.011-.037-.017a1.449,1.449,0,0,0-1.177.023c-.083.044-.159.082-.235.127-.033.022-.065.038-.1.059a4.147,4.147,0,0,0-1.771,2.9,3.027,3.027,0,0,0,.033,1.594.869.869,0,0,0,.683.579,1.029,1.029,0,0,0,.793-.257,2.367,2.367,0,0,0,.362-.405c.022-.028.038-.055.061-.082a9.049,9.049,0,0,0,.76-1.34c-.028.338-.049.694-.049.815a2.413,2.413,0,0,0-.017.614.807.807,0,0,0,.264.585.539.539,0,0,0,.564-.028,1.388,1.388,0,0,0,.662-.625l.016-.053-.034-.045a.524.524,0,0,0-.152-.16m-4.478-.392-.015-.2-.17.113a3.37,3.37,0,0,1-2.5.553,3.334,3.334,0,0,1-2.4-2,3.142,3.142,0,0,1,2.168-4.638,2.25,2.25,0,0,1,1.5.209,1.819,1.819,0,0,1,.859,1.336l.006.01.006.011c.049.125.19.11.291.067l.07-.029v-1.713l-.055-.034a3.9,3.9,0,0,0-2.09-.563,4.108,4.108,0,0,0,0,8.216,6.41,6.41,0,0,0,2.3-.718l.077-.038-.012-.077c-.01-.168-.027-.339-.044-.5" transform="translate(-165.283 -521.267)"/><path class="r" d="M186.631,521.22a1.612,1.612,0,0,0,.154-.454s.07-.251.2-.273a.133.133,0,0,1,.064.011h0a.617.617,0,0,1,.23.284,2.585,2.585,0,0,1,.268.9,1.679,1.679,0,0,1-.137.608.518.518,0,0,1-.214.349.133.133,0,0,1-.148-.011.382.382,0,0,1-.125-.149,2.506,2.506,0,0,1-.346-.759.853.853,0,0,1,.056-.51m.241,1.463a.585.585,0,0,0,.174.179.26.26,0,0,0,.154.023c.135-.023.256-.19.333-.438a2.244,2.244,0,0,0,.191-.612,2.314,2.314,0,0,0-.378-1.177.686.686,0,0,0-.3-.339.244.244,0,0,0-.088-.011c-.174.028-.272.328-.272.328a1.492,1.492,0,0,1-.2.541c-.291.466.034,1.02.384,1.506m-3.866-4.783c0,.006-.006.01-.007.015a.107.107,0,0,0,.007-.015m-.007.015c-.007.014-.017.031-.027.049.008-.013.016-.031.027-.049m7.321-1.609.007.007-.007-.007m.007.007.014.011-.014-.011m2.421,8.256c-.328,0-.535-.2-.869-.2-.279,0-.454.077-.738.1-.164.017-.323.017-.465.044a.6.6,0,0,0-.323.159l-.032.034c-.509.514-.8,1.094-1.517,1.094a.184.184,0,0,1-.135-.078l-.006,0a.525.525,0,0,0-.061-.071l.049-2.648a.019.019,0,0,1,.012-.005h.006a4.506,4.506,0,0,1,1.652-.476,3.2,3.2,0,0,1,.338-.017h.017a2.811,2.811,0,0,1,2.019.552c.361.269.328.668.328,1.117,0,.175-.12.4-.274.4m-2.072,6.339c-.121.132-.241.257-.355.379a8.329,8.329,0,0,1-1.652,1.361l-.006,0a3.33,3.33,0,0,1-.346.182,1.593,1.593,0,0,1-.24.087.837.837,0,0,1-.34.038c-.077,0,.083-.093.34-.29.071-.055.154-.116.24-.186.11-.1.227-.209.346-.335l.006,0a4.513,4.513,0,0,0,1.028-1.681,10.978,10.978,0,0,1,.625-1.472,5.959,5.959,0,0,1,.355-.614c1.115-1.711,2.227-1.707,2.227-1.615a8.069,8.069,0,0,1-2.227,4.144m-3.544,1.335.037-.025a.4.4,0,0,0-.037.025m-1.787.44a2.846,2.846,0,0,1-1.253-.515,5.835,5.835,0,0,1-1.05-.991l-.018-.017c-.12-.148-.23-.3-.323-.431a6.648,6.648,0,0,1-.46-.74s.175-.13.46-.344c.094-.077.2-.159.323-.247l.018-.012c.3-.228.667-.492,1.05-.772a.347.347,0,0,1,.038-.027c1.041-.75,1.729-.393,2.128,1.073a1.157,1.157,0,0,0,.865.837,2.671,2.671,0,0,0,.952.033c.083-.01.164-.023.24-.038.139-.024.253-.052.346-.077l.006-.005a1.588,1.588,0,0,0,.239-.073s-.006.012-.239.3l-.006.012c-.089.1-.192.246-.346.425-.06.071-.119.148-.191.236l-.049.048a4.241,4.241,0,0,1-.952.888,2.479,2.479,0,0,1-1.779.433m-3.733-4.035,0,.011a.023.023,0,0,0,0-.011c0-.06,0-.109,0-.109l-.006-.005c-.016-.055-.109-.3-.169-.547-.1-.3-.335-.668-.389-.9a8.24,8.24,0,0,1-.224-1.5c0-.373.2-.2.41-.022a.884.884,0,0,0,.372.17l.01,0c.083.01.155.022.225.028.181,0,.335.154.613,0,.251-.126.224.1.251.176s.079.244.128.448a3.492,3.492,0,0,0,.2,1.074l.018.031a.428.428,0,0,0,.042.067c.166.317.011.454-.042.5a.022.022,0,0,1-.012,0h-.006a1.824,1.824,0,0,1-.323.362c-.115.1-.267.236-.46.388-.464.362-.589.018-.629-.169m-.9-4.629a15.9,15.9,0,0,0,.154-1.648,6.317,6.317,0,0,1,.535-2.146,1.642,1.642,0,0,0,.2-.353l.01-.023c.072-.164.122-.268.252-.224.2.071.175.247.073.448a.865.865,0,0,0,.278.849,1.74,1.74,0,0,1,.154,1.722,2.856,2.856,0,0,0-.073,1.823.728.728,0,0,1,.073.405c-.073.2-.4-.02-.757-.2l-.01-.005a1.473,1.473,0,0,0-.524-.2c-.46-.042-.361-.4-.361-.447m1.985-5.469a2.572,2.572,0,0,1,.306-.649c.007-.023.012-.04.017-.055l.018-.038a1.069,1.069,0,0,1,.475-.58,2.288,2.288,0,0,0,.476-.339.832.832,0,0,0,.12-.121,1.108,1.108,0,0,1,.827-.444c.231.028.182.3.231.554a2.9,2.9,0,0,1,.328,1.024,2.537,2.537,0,0,1-.1.623v.526a2.614,2.614,0,0,0-1.172.271h-.711l-.334.177a.452.452,0,0,1-.141.023h-.018a.437.437,0,0,1-.245-.128,1.777,1.777,0,0,0-.079-.415.8.8,0,0,1-.026-.208,1.019,1.019,0,0,1,.026-.22m2.671,5.732c.2.3.029,1.308.077,2.058s-.153.7-.716.978c-.323.181-.493.155-.641.03a2.471,2.471,0,0,1-.3-.406c-.329-.449-.148-.524-.658-2.046-.038-.089-.06-.182-.092-.264-.006-.015-.012-.037-.018-.054a2.287,2.287,0,0,1,0-1.549l.018-.032c.086-.187.184-.329.246-.477.114-.262.536-.153.8-.054.141.054.241.1.241.1s.481.23.684.328c.208.071.224-.016.432.153.12.093-.011.258-.016.488a3.686,3.686,0,0,0-.062.744m.182-4.083c-.055.351-.055.651-.1,1.123-.049.426-.049.852-.716.573-.213-.083-.438-.164-.641-.23-.323-.115-.586-.191-.6-.191s-.343-.01-.41-.279c-.028-.05,0-.089-.034-.109a.14.14,0,0,0-.022-.029.532.532,0,0,1,0-.348l.006-.013a.179.179,0,0,0,.012-.066c.042-.19-.018-.334.4-.334a5.09,5.09,0,0,0,.653-.027,2.2,2.2,0,0,0,.311-.045c.258-.053.514-.08.514-.08s.686-.273.636.055m.02-.137c0-.01,0-.013,0,0m.742-4.137c.353,0,.628-.005.809-.011s.264-.011.264-.011a1.75,1.75,0,0,1,.688.089.624.624,0,0,1,.24.158.471.471,0,0,1,.082.4,12.1,12.1,0,0,0,0,2.1c-.011.234-.032.8-.082,1.334a4.236,4.236,0,0,1-.191,1.09c-.017.037-.031.07-.049.108a4.245,4.245,0,0,0-.208,1.69c.023.631-.258,6.4-.258,6.4s-.059,1.077-.486.4a4.089,4.089,0,0,1-.2-.4c-.585-1.375-1.018-1.85-.94-3.624s.175-4.82.306-5.073a6.214,6.214,0,0,0,0-2.3c-.153-.9-.384-1.542-.384-1.752-.026-.218-.283-.6.407-.6m2.348,11.9.006-.018c.107-.2.257-.438.464-.766a5.9,5.9,0,0,1,1.188-1.385,2.45,2.45,0,0,1,.355-.246,1.577,1.577,0,0,1,2.072.284,6.1,6.1,0,0,0-2.072,1.754,2.059,2.059,0,0,0-.274.6,1.542,1.542,0,0,1-.082.235,2.81,2.81,0,0,1-1.652,1.357h-.006c-.143.051-.232.055-.232.007.034-1-.147-1.09.232-1.817-.34.65-.055.1,0,0m.092-6.076c0-.274.154-.426.154-.7,0-.176.021-.373.2-.373h.943c.087-.027.181-.044.269-.065.125-.033.239-.059.355-.083a6.033,6.033,0,0,1,1.438-.151c.306,0,.378.3.484.6a2.921,2.921,0,0,1,.173,1.023v.394a11.143,11.143,0,0,0-1.269-.22c-.329-.049-.58-.109-.826-.158l-.355-.061a5,5,0,0,0-.5-.032c-.361,0-.793-.071-1.018.2-.131-.071-.049-.225-.049-.372m.121-2.427a1.811,1.811,0,0,1,.083-.523l.049-1.6c0-.175-.2-.4-.1-.449.225-.087.827.22,1.413.69.119.1.239.2.355.311a3.021,3.021,0,0,1,1.078,1.725c0,.1-.482.07-.482.07l-.6.126-.355.078-.577.12s-.764.1-.869,0c-.121-.12,0-.55,0-.55m1.8-2.7c-.116-.109-.236-.214-.355-.313a6.66,6.66,0,0,0-1.652-.964l-.006,0c-.116-.044-.225-.084-.346-.122l-.24-.065a4.569,4.569,0,0,0-.952-.143c-.082,0-.164-.01-.251-.01a5.253,5.253,0,0,0-2.781.821,7.129,7.129,0,0,0-1.05.811l-.018.016c-.11.11-.218.22-.323.334a9.091,9.091,0,0,0-1.089,1.456l-.01.016a12.416,12.416,0,0,0,0,12.008l.01.016a8.792,8.792,0,0,0,1.089,1.462c.106.115.213.224.323.329l.018.016a7.226,7.226,0,0,0,1.05.816,5.241,5.241,0,0,0,2.781.809c.086,0,.169,0,.251-.005a4.332,4.332,0,0,0,.952-.137c.083-.022.158-.044.24-.07a2.7,2.7,0,0,0,.346-.12h.006a6,6,0,0,0,1.652-.964c.119-.1.239-.2.355-.311a11.7,11.7,0,0,0,0-15.68M182.95,518h0" transform="translate(-168.976 -514.998)"/></g><g class="c"><path class="d" d="M258.021,628.746h-33.5c-1.625-1.125-10-6.75-13.376-11-.75-.875-3.375-8.625-5.5-15-1.25-3.875-2.375-7.25-2.5-8.125,0-.25-.125-.75-.125-1.5h0c-.125-2.625,0-7.5.125-11.5h0v-.5h0a8.884,8.884,0,0,1,.124-1.875c0-1.5.125-2.625.125-3V576h0s1.625-.875,3.875.625a6.155,6.155,0,0,1,1.5,2.5c.25.75.5,1.625.75,2.5,1,3.5,1.624,7.75,2,8.875.626,1.875,7.376,9.75,7.875,10.25h0v-12.5l-5.125-13.875-2.125-5.625-1.125-2.875a48.1,48.1,0,0,1-3-5.875,25.735,25.735,0,0,1-1.5-4.375c-.125-.375-.125-.625-.251-1h0a5.605,5.605,0,0,1,.125-3.25,2.26,2.26,0,0,1,2.5-1.875h.5c.125,0,.25.125.375.125h0a.976.976,0,0,1,.5.5s.75,1,1.75,2.25c.625.875,1.375,1.875,2.125,2.75,1.25,1.75,2.5,3.25,2.876,3.75,1.75,2.5,6.625,10.625,6.625,10.625l5.625.25a3.417,3.417,0,0,1,2.375,1c2,1.875,6.25,5.875,6.874,6.5,0,.25,3.375,1.75,5.876,3.25a32.953,32.953,0,0,1,5.375,3.5,4.948,4.948,0,0,1,1.5,1.875c1.25,2.625,4.5,25.375,6,36.625C257.646,626.121,258.021,628.621,258.021,628.746Z" transform="translate(-116.397 -474.746)"/></g><g class="c"><path class="f" d="M230.372,576.17s5.25,8.5,5.876,8.875c.75.375,3.375.875,3.625,0C240.247,584.169,230.372,576.17,230.372,576.17Z" transform="translate(-123.247 -481.42)"/></g><g class="c"><path class="f" d="M261.456,593.253h0a40.989,40.989,0,0,0-5.375-3.625c-2.375-1.375-5.375-2.75-5.875-3.125.5.625,4.375,5,5.875,5.375C257.331,592.253,260.331,593,261.456,593.253Z" transform="translate(-128.206 -484.003)"/></g><g class="c"><path class="f" d="M224.706,613.669v-12.5s3,5,3.25,7.75S226.705,616.045,224.706,613.669Z" transform="translate(-121.831 -487.67)"/></g><g class="c"><path class="g" d="M209.681,554.67a15.818,15.818,0,0,1-1.5-2.875,1.056,1.056,0,0,1,.25-1.125c.125,0,.125-.125.25-.125a.948.948,0,0,1,.5-.25,1.591,1.591,0,0,1,.75-.125.686.686,0,0,1,.625.375h0a26.712,26.712,0,0,1,1.625,2.75,1.482,1.482,0,0,1,.125,1.25l-1.125.75A1.181,1.181,0,0,1,209.681,554.67Z" transform="translate(-117.681 -474.92)"/></g><g class="c"><path class="f" d="M203.164,591.605h0c.625-.25,1.5-.375,1.875.375.625,1.125-1.751,10.625-2,11.75Z" transform="translate(-116.414 -485.23)"/></g><g class="c"><path class="g" d="M203.456,584.835l-.25,5.75a2.388,2.388,0,0,0,1.875-.375C205.831,589.71,205.456,584.711,203.456,584.835Z" transform="translate(-116.456 -483.585)"/></g><g class="c"><g transform="translate(91.376 56.751)"><path class="d" d="M221.123,533.253l-.875.375-5.625,2.125c-.124,0-.25.125-.375.125a3.719,3.719,0,0,1-4.5-2.375l-.124-.25a3.883,3.883,0,0,1,2.25-5l5.25-2,.375-.125.874-.375a3.884,3.884,0,0,1,5,2.25l.125.25A4.058,4.058,0,0,1,221.123,533.253Z" transform="translate(-209.374 -525.504)"/><path class="l" d="M217.164,534.394a22.567,22.567,0,0,1-3.5,1.125,1.483,1.483,0,0,1-1.125-.625,5.5,5.5,0,0,1-.75-1.25,8.132,8.132,0,0,1-.25-.875v-1c0-.25.25-.5.5-.75h0a27.144,27.144,0,0,1,3.375-1.375,1.486,1.486,0,0,1,1.875.875l.124.375.626,1.625A1.539,1.539,0,0,1,217.164,534.394Z" transform="translate(-209.915 -526.52)"/><path class="g" d="M217.372,534.695a22.566,22.566,0,0,1-3.5,1.125,1.483,1.483,0,0,1-1.125-.625c0-.125-.124-.25-.124-.375a8,8,0,0,1-.251-.875v-1c0-.25.251-.5.5-.75h0a27.144,27.144,0,0,1,3.375-1.375,1.735,1.735,0,0,1,1.375.25l.626,1.625A1.632,1.632,0,0,1,217.372,534.695Z" transform="translate(-210.123 -526.821)"/></g></g><g class="c"><g transform="translate(93.029 67.029)"><path class="d" d="M219.174,544.554l-4.376,1.125a2.324,2.324,0,0,1-3-1.75l-.124-.5a2.324,2.324,0,0,1,1.75-3L217.8,539.3a2.323,2.323,0,0,1,3,1.75l.125.5A2.526,2.526,0,0,1,219.174,544.554Z" transform="translate(-211.578 -539.208)"/><path class="l" d="M217.039,544.787a12.845,12.845,0,0,1-3,.625,1.382,1.382,0,0,1-1.125-1c-.125-.125-.125-.375-.25-.625,0-.25-.125-.375-.125-.625a1.584,1.584,0,0,1,.125-.75.972.972,0,0,1,.5-.5h0a19.2,19.2,0,0,1,2.876-.75,1.426,1.426,0,0,1,1.5.75l.124.375.375,1.125A1.355,1.355,0,0,1,217.039,544.787Z" transform="translate(-211.818 -539.69)"/><path class="g" d="M217.122,544.992a12.845,12.845,0,0,1-3,.625,1.382,1.382,0,0,1-1.125-1c0-.25-.125-.375-.125-.625a1.581,1.581,0,0,1,.125-.75.975.975,0,0,1,.5-.5h0a19.362,19.362,0,0,1,2.875-.75,1.387,1.387,0,0,1,1.375.5l.375,1.125A1.355,1.355,0,0,1,217.122,544.992Z" transform="translate(-211.901 -539.896)"/></g></g><g class="c"><g transform="translate(90.974 46.599)"><path class="d" d="M220.863,521.495h0l-5.749,1.5a4.74,4.74,0,0,1-5.75-3l-.375-1.125a4.368,4.368,0,0,1,3-5.25l1.875-.5,3.75-1a4.741,4.741,0,0,1,5.75,3l.375,1.125A4.191,4.191,0,0,1,220.863,521.495Z" transform="translate(-208.838 -511.968)"/><path class="l" d="M219.6,520.609l-2.749,1.25h0a.46.46,0,0,0-.375.125h-.125a.477.477,0,0,1-.375-.625,2.455,2.455,0,0,0,.125-1.875l-.125-.25h0l-.25-.75a2.487,2.487,0,0,0-1-1.5l-.124-.125a.781.781,0,0,1,.25-1.375h0l3-.5a1.326,1.326,0,0,1,1.625,1.125l.25.875.5,1.875C220.6,519.61,220.353,520.484,219.6,520.609Z" transform="translate(-210.202 -512.708)"/><path class="g" d="M219.747,521.037,217,522.287h0a.948.948,0,0,0-.5.125.477.477,0,0,1-.375-.625,2.455,2.455,0,0,0,.125-1.875l-.125-.25h0l-.25-.75a2.487,2.487,0,0,0-1-1.5c.125-.125.251-.25.375-.25h0l3-.5a1.424,1.424,0,0,1,1.5.75l.5,1.875C220.747,520.037,220.5,520.911,219.747,521.037Z" transform="translate(-210.346 -513.136)"/></g></g></g></g></g></svg>