<svg xmlns="http://www.w3.org/2000/svg" width="108.257" height="110" viewBox="0 0 108.257 110"><defs><style>.a{fill:#1a74db;}</style></defs><g transform="translate(-978.999 -864)"><g transform="translate(788.537 635.877)"><path class="a" d="M256.767,240.4a6.084,6.084,0,0,0-8.589.505l-24.014,25.818L211.448,254.9a5.96,5.96,0,0,0-8.1,8.709l17.069,15.872,0,0,0,0,.27.251a5.771,5.771,0,0,0,8.132-.559c.032-.035.053-.075.083-.107s.072-.059.1-.091L256.884,249A6.089,6.089,0,0,0,256.767,240.4Z" transform="translate(18.713 17.956)"/><g transform="translate(205.591 308.873)"><path class="a" d="M196.123,269.856l10.286-10.406,2.1,2.074L198.221,271.93Z" transform="translate(-196.123 -256.481)"/><path class="a" d="M208.212,267.154a4.354,4.354,0,0,0,.759-1.807,1.406,1.406,0,0,0-.81-1.312,1.94,1.94,0,0,0-1.184-.377,1.233,1.233,0,0,0-.919.649,1.562,1.562,0,0,0-.289,1.17,6.519,6.519,0,0,0,.553,1.457l.024.04c.182.366.35.7.5,1.016s.3.639.452.975.3.681.446,1.04a7.259,7.259,0,0,1,.318.925,3.873,3.873,0,0,1,.126,1.716,4.382,4.382,0,0,1-.665,1.579,3.81,3.81,0,0,1-2.806,1.905,5.391,5.391,0,0,1-3.568-.994,6.81,6.81,0,0,1-1.686-1.47,3.737,3.737,0,0,1-.767-1.571,3.481,3.481,0,0,1,.056-1.622,5.852,5.852,0,0,1,.764-1.676l.58-.9,2.483,1.6-.465.721a3.238,3.238,0,0,0-.631,1.774,1.605,1.605,0,0,0,.861,1.3,1.571,1.571,0,0,0,2.469-.452,2.009,2.009,0,0,0,.342-1.08,2.772,2.772,0,0,0-.289-1.184c-.152-.39-.412-.97-.788-1.737-.39-.791-.689-1.454-.89-1.986a7.27,7.27,0,0,1-.412-1.636,3.688,3.688,0,0,1,.575-2.3,3.562,3.562,0,0,1,2.531-1.793,5.251,5.251,0,0,1,3.458,1.053,5.777,5.777,0,0,1,1.895,1.785,3.25,3.25,0,0,1,.518,1.761,3.957,3.957,0,0,1-.318,1.489,10.481,10.481,0,0,1-.743,1.352l-.088.134Z" transform="translate(-191.942 -253.736)"/><path class="a" d="M204.54,268.177a24.61,24.61,0,0,1,.994-2.606,5.4,5.4,0,0,1,1.173-1.67,3.27,3.27,0,0,1,1.836-.842,8.2,8.2,0,0,1,5.259,1.523,3.256,3.256,0,0,1,1.1,1.686,5.556,5.556,0,0,1,.1,2.042,25.2,25.2,0,0,1-.551,2.734l-.58,2a22.737,22.737,0,0,1-.941,2.726,5.316,5.316,0,0,1-1.189,1.756,3.35,3.35,0,0,1-1.876.879,8.271,8.271,0,0,1-5.385-1.555,3.341,3.341,0,0,1-1.117-1.745,5.381,5.381,0,0,1-.067-2.119,23.251,23.251,0,0,1,.657-2.806Zm1.956,4.161a9.544,9.544,0,0,0-.251,1.085,3.728,3.728,0,0,0-.011,1.021,1.846,1.846,0,0,0,.4.93,1.959,1.959,0,0,0,1.018.609,2.052,2.052,0,0,0,1.232.029,1.7,1.7,0,0,0,.842-.6,4.019,4.019,0,0,0,.516-.917c.131-.329.265-.727.4-1.2l1.04-3.6c.142-.489.249-.925.323-1.309a4.493,4.493,0,0,0,.075-1.168,2.078,2.078,0,0,0-.363-1.058,1.81,1.81,0,0,0-1.034-.674,1.969,1.969,0,0,0-1.187-.029,1.837,1.837,0,0,0-.844.609,4.084,4.084,0,0,0-.577,1.01,14.283,14.283,0,0,0-.46,1.36Z" transform="translate(-184.238 -250.515)"/><path class="a" d="M219.548,272.207a12.853,12.853,0,0,1,.072,2.889,4.378,4.378,0,0,1-.6,1.889,2.992,2.992,0,0,1-1.264,1.106,6.622,6.622,0,0,1-2.018.529,4.6,4.6,0,0,1-2.921-.454,2.937,2.937,0,0,1-1.344-2.352l2.72-.329a4.01,4.01,0,0,0,.1.42.707.707,0,0,0,.171.294,1.267,1.267,0,0,0,1.138.275,1.432,1.432,0,0,0,.81-.323,1.226,1.226,0,0,0,.377-.636,2.836,2.836,0,0,0,.094-.738c0-.243-.016-.54-.043-.89l-.04-.31-.112-.93-.053.067a4.036,4.036,0,0,1-.828.788,3.036,3.036,0,0,1-1.3.393,3.18,3.18,0,0,1-2.835-.818,5.661,5.661,0,0,1-1.269-3.306,7.357,7.357,0,0,1,.446-4.308,5.015,5.015,0,0,1,6.815-.783,7.329,7.329,0,0,1,1.462,4.038Zm-3.944-5.764a1.178,1.178,0,0,0-1.323-.577,1.088,1.088,0,0,0-1.037.8,8.57,8.57,0,0,0,.064,2.557,5.614,5.614,0,0,0,.5,1.943,1.124,1.124,0,0,0,1.237.5,1.382,1.382,0,0,0,.8-.323,1.227,1.227,0,0,0,.358-.641,3.4,3.4,0,0,0,.061-.8c-.013-.273-.04-.615-.094-1.029A7.825,7.825,0,0,0,215.6,266.442Z" transform="translate(-172.415 -249.422)"/><path class="a" d="M214.37,268.6a4.155,4.155,0,0,1-.152-3.394,5.68,5.68,0,0,1,5.935-2.3,4.146,4.146,0,0,1,2.173,2.611l2.376,6.13a4.187,4.187,0,0,1,.155,3.4,5.635,5.635,0,0,1-5.935,2.3,4.185,4.185,0,0,1-2.178-2.619Zm5.126,5.067a2.831,2.831,0,0,0,.9,1.387,1.116,1.116,0,0,0,1.045.078,1.2,1.2,0,0,0,.762-.778,2.688,2.688,0,0,0-.249-1.638l-2.376-6.133a2.633,2.633,0,0,0-.911-1.36,1.2,1.2,0,0,0-1.085-.061,1.131,1.131,0,0,0-.727.751,2.778,2.778,0,0,0,.267,1.622Z" transform="translate(-166.354 -251.045)"/><path class="a" d="M218.266,267.816a4.143,4.143,0,0,1-.981-3.252,5.674,5.674,0,0,1,5.185-3.688,4.157,4.157,0,0,1,2.753,1.994l3.811,5.358a4.185,4.185,0,0,1,.986,3.26,5.629,5.629,0,0,1-5.187,3.688,4.173,4.173,0,0,1-2.755-2Zm6.213,3.648a2.828,2.828,0,0,0,1.216,1.125,1.116,1.116,0,0,0,1.032-.184,1.192,1.192,0,0,0,.545-.941,2.68,2.68,0,0,0-.647-1.526l-3.811-5.358a2.63,2.63,0,0,0-1.219-1.1,1.2,1.2,0,0,0-1.066.208,1.118,1.118,0,0,0-.516.906,2.763,2.763,0,0,0,.657,1.507Z" transform="translate(-160.836 -254.13)"/><path class="a" d="M224.005,263.494l-2.306,2.712-1.486-1.264a6.436,6.436,0,0,0,1.382-2.515,3.023,3.023,0,0,0-.5-2.435l1.406-1.654,11.144,9.479-1.911,2.247Z" transform="translate(-155.835 -258.339)"/></g><path class="a" d="M195.834,282.253A48.757,48.757,0,1,1,285.25,309.1l3.651,4.15a54.14,54.14,0,1,0-87.26,1.82c1.283-1.173,2.648-2.429,3.971-3.651A48.431,48.431,0,0,1,195.834,282.253Z" transform="translate(0 0)"/></g></g></svg>