<svg xmlns="http://www.w3.org/2000/svg" width="109.165" height="110" viewBox="0 0 109.165 110"><defs><style>.a{fill:#1a74db;}</style></defs><g transform="translate(-282.001 -864)"><g transform="translate(-23.465 635.92)"><g transform="translate(310.167 228.08)"><path class="a" d="M338.263,266.962a21.926,21.926,0,0,1-6.627,4.21,20.157,20.157,0,0,1-7.437,1.372,14.668,14.668,0,0,1-12.446-6.031q-4.509-6.033-4.505-16.7,0-9.857,4.407-15.777a13.912,13.912,0,0,1,11.731-5.92q7.229,0,11.412,6.416t4.178,17.669v.449H317.228v.182a12.044,12.044,0,0,0,2.5,8.034,8.48,8.48,0,0,0,6.838,2.948,13.021,13.021,0,0,0,5.833-1.441,23.8,23.8,0,0,0,5.867-4.275ZM317.294,246.12l11.927-.045a13.279,13.279,0,0,0-1.8-6.482,4.607,4.607,0,0,0-3.972-2.341,4.887,4.887,0,0,0-4.133,2.341A13.511,13.511,0,0,0,317.294,246.12Z" transform="translate(-307.247 -228.026)"/><path class="a" d="M348.3,269.763a16.919,16.919,0,0,1-4.587,2.069,19.317,19.317,0,0,1-5.233.676,15.951,15.951,0,0,1-13.093-5.965q-4.83-5.966-4.83-16.136,0-10.087,4.78-16.207a15.365,15.365,0,0,1,12.755-6.12,17.475,17.475,0,0,1,4.925.7,20.945,20.945,0,0,1,4.766,2.093v10.488a26.131,26.131,0,0,0-4.489-2.072,11.95,11.95,0,0,0-3.745-.673,7.633,7.633,0,0,0-6.482,3.127q-2.332,3.127-2.333,8.667,0,5.625,2.38,8.709a8.11,8.11,0,0,0,6.822,3.083,12.218,12.218,0,0,0,3.956-.7,22.939,22.939,0,0,0,4.407-2.138Z" transform="translate(-285.426 -228.08)"/><path class="a" d="M332.458,250.353q0-9.861,4.682-16.049a15.107,15.107,0,0,1,24.407.021q4.715,6.215,4.716,16.028,0,9.766-4.7,15.933a15.19,15.19,0,0,1-24.423.024Q332.461,260.166,332.458,250.353Zm9.95,0a17.279,17.279,0,0,0,1.9,8.709q1.9,3.262,5.007,3.262,3.147,0,5.025-3.262a21.138,21.138,0,0,0-.018-17.466q-1.892-3.31-5.007-3.31-3.08,0-4.991,3.31A17.427,17.427,0,0,0,342.408,250.353Z" transform="translate(-265.921 -228.026)"/></g><path class="a" d="M351,297.7a17.678,17.678,0,0,0-4.513-4.215s-5.115,3.914-14.143,1.805-21.486-10.681-25.006-25.856-.982-21.377-.982-21.377.441-1.1,2.639-1.1,24.191,1.649,33.869,10.227,11.436,17.044,10.776,22.1a24.925,24.925,0,0,1-2.2,7.918l3.713,3.782c2.2,2.2,5.395,6.223,5.743,5.782,1.652-2.088,4.73-5.606,4.73-5.606l4.18-4.948a17.773,17.773,0,0,1-2.09-15.727c3.188-9.237,11.177-14.244,19.134-17.923a46.469,46.469,0,0,1,21-4.4c1.76.108,5.938-.111,6.379,2.309.631,3.468,1.649,18.472-6.928,30.348s-12.536,12.317-12.536,12.317-4.621,1.317-4.84-2.2,2.09-3.848,5.389-6.928a51.513,51.513,0,0,0,10.557-16.054,22.413,22.413,0,0,0,1.541-9.456c0-1.855-2.2-2.639-2.2-2.639-3.626-.449-7.477,0-12.536,2.2-4.735,2.061-8.833,3.663-13.687,8.944-2.354,2.56-4.677,7.606-4.017,9.915s1.979,2.143,3.3.33,8.907-7.754,8.907-7.754,3.793-2.969,5.938-2.473,3.3,2.473,1.813,4.619c-.187.269-10.061,9.952-17.485,17.318-3.642,3.616-10.887,12.7-10.887,12.7-1.483,2.143-4.7,5.738-6.432,5.442C358.451,306.829,353.55,300.844,351,297.7Zm-4.727-16.761s2.09-10.778-10.227-19.026c-11.826-7.918-21.94-6.928-21.94-6.928s-1.18,12.225,4.619,20.454c12.206,17.321,23.093,10.723,23.093,10.723l-15.009-13.8s-2.969-2.75-.549-4.729c1.987-1.626,5.608,1.539,5.608,1.539a52.842,52.842,0,0,1,5.168,4.07Z" transform="translate(0 30.951)"/></g></g></svg>