<svg xmlns="http://www.w3.org/2000/svg" width="109.57" height="110" viewBox="0 0 109.57 110"><defs><style>.a{fill:#1a74db;}</style></defs><g transform="translate(-628 -864)"><g transform="translate(311.646 190.706)"><path class="a" d="M421.539,747.852h0a54.558,54.558,0,0,0-5.726-50.879c-.017-.023-.035-.045-.052-.068a55,55,0,0,0-5.484-6.763,56.662,56.662,0,0,0-8.61-7.312,54.491,54.491,0,1,0-11.435,95.892,22.2,22.2,0,0,0,31.307-30.87ZM370.855,777.98a50.195,50.195,0,1,1,28.381-91.607A55.105,55.105,0,0,1,412.27,699.4a50.266,50.266,0,0,1,6,44.919,22.141,22.141,0,0,0-11.063-5.171,23.377,23.377,0,0,0-10.46-14.921,15.86,15.86,0,1,0-25.889-18.124,15.863,15.863,0,1,0-25.893,18.126,23.17,23.17,0,0,0-10.95,19.623V748a2.149,2.149,0,0,0,2.149,2.149h15.631V752.5a2.148,2.148,0,0,0,2.149,2.148h28.515a22.187,22.187,0,0,0,4.295,20.75A49.932,49.932,0,0,1,370.855,777.98Zm-32.547-34.123a18.871,18.871,0,0,1,10.013-16.605,15.787,15.787,0,0,0,8.811,2.676c.463,0,.924-.024,1.382-.064a13.188,13.188,0,0,0,1.909,3.37,19.158,19.158,0,0,0-8.335,12.616H338.308v-1.992Zm46.264-41.365a11.569,11.569,0,1,1,0,23.139c-.171,0-.342-.006-.514-.013.006-.162.013-.324.013-.488a13.233,13.233,0,0,0-10.9-13.006A11.588,11.588,0,0,1,384.572,702.492Zm-4.8,22.638a8.922,8.922,0,1,1-8.92-8.917A8.929,8.929,0,0,1,379.774,725.13Zm-22.142,0c0,.164.007.325.013.488-.171.007-.341.013-.514.013a11.569,11.569,0,1,1,11.409-13.508A13.236,13.236,0,0,0,357.633,725.13Zm-1.545,25.226v-1.189a14.819,14.819,0,0,1,7.64-12.916,13.175,13.175,0,0,0,14.251,0,14.85,14.85,0,0,1,7.61,12.013,22.315,22.315,0,0,0-1.315,2.092Zm25.2-17.122a13.223,13.223,0,0,0,1.908-3.37c.458.039.919.064,1.382.064a15.785,15.785,0,0,0,8.814-2.678,19.059,19.059,0,0,1,9.336,11.65,22.107,22.107,0,0,0-13.465,5.339A19.22,19.22,0,0,0,381.283,733.234ZM403.711,779a17.912,17.912,0,0,1,0-35.824c.486,0,.966.024,1.442.063l.027,0A17.91,17.91,0,0,1,403.711,779Z" transform="translate(0)"/><path class="a" d="M418.418,768.157a7.408,7.408,0,0,0-9.871.381,8.435,8.435,0,0,0,0,11.6l.057.057,8.321,8.027a2.149,2.149,0,0,0,2.983,0l8.321-8.027.054-.054a8.422,8.422,0,0,0,0-11.6A7.4,7.4,0,0,0,418.418,768.157Z" transform="translate(-14.704 -15.241)"/></g></g></svg>