<?xml version="1.0" encoding="utf-8"?>
<!-- Generator: Adobe Illustrator 24.3.0, SVG Export Plug-In . SVG Version: 6.00 Build 0)  -->
<svg version="1.1" id="Capa_1" xmlns="http://www.w3.org/2000/svg" xmlns:xlink="http://www.w3.org/1999/xlink" x="0px" y="0px"
	 viewBox="0 0 226.3 192.9" style="enable-background:new 0 0 226.3 192.9;" xml:space="preserve">
<style type="text/css">
	.st0{fill:#008244;}
	.st1{fill:#FFDD00;}
	.st2{fill:#005CA9;}
	.st3{fill:#E8412C;}
</style>
<g>
	<path class="st0" d="M109.4,118c-0.5,0,5-2.5,10.4-7c4.2-3.4,8.6-8.8,10.9-13.8c1.3-4.3,3.4-6.3,5.2-8.7c1.2-1.4,3.1-4.3,3.9-5.4
		c2.8-3,5.7-7.6,8-8.8c2.8-1.5,8-3.2,8.1-2.9c0.1,5.1-2,12.8-4.4,18.4c-2.8,6.6-8,13.8-12.8,18.8c-5.9,6.8-12.3,8.5-17.8,9.8
		C118.2,119.6,109.4,118.8,109.4,118C109.4,118,109.4,118.8,109.4,118"/>
	<path class="st0" d="M156.2,66.4c0,0-4.4-3.7-9.3-4c-4.1-0.6-9.5,1.3-11.8,4.8c-2.3,1.8-9,8-11.9,10.6c-1.5,8.6-0.5,11.3-0.5,19.5
		c0,0.2,7.2-1.4,8.9-1.8c2-2.1,4.6-7.4,6.8-10.4c2.5-2.6,5.7-7.1,8.7-10.4l8.8-3.7L156.2,66.4z"/>
	<path class="st1" d="M119.3,1.8c0,0,2.6,0.2,4.6,0.9c1.3,0.5,2.7,1.5,3,2.6l0.1,0.5c2.1,3.8-0.5,15.5-0.5,17.9
		c0,2.7-1.3,14.3-1.7,16.5c-0.5,2.2-1.5,6.7-1.5,10.6c0,1.8-0.1,12-0.5,21.6c-0.4,9.6,0.1,23.9-0.2,24.9c0,0-2.6,0.3-3.6,0.3
		c-0.4,0-3.4-0.3-5.9-4.7c-2.6-4.5-5.3-10.4-5.9-13c-0.4-3,0-7.4,0-11.5c0-11.2,1.4-33.2,1.4-33.9c0-0.5-0.1-3.4-0.3-6.1
		c0-2.4,0.5-4.9,0.3-7.1c-0.6-5-2.9-10.7-2.9-11.9c0-1.4-2.6-7.3,3.3-7C111,1.8,117.7,1.4,119.3,1.8C119.3,1.8,117.7,1.4,119.3,1.8"
		/>
	<path class="st2" d="M104.6,4c-5.4,0.5-21.2,14.4-20.8,18.6c0,1.3,2,4.8,2,6.4c1,0.7,0.8,6.4,2.1,6.1l5.1-4l4.6-0.2
		c2.6-0.1,8-1.1,10.9-2.2l0.3-4.4c0.4-1.4-0.3-3.7-0.3-5.3c0-2.6-2.6-6.9-2.6-9.3C105.9,9.2,106.1,4.2,104.6,4
		C104.6,4,106.1,4.2,104.6,4"/>
	<path class="st3" d="M127.1,5.5c-1.1,0-0.5,16-0.7,18.7c-0.5,1.3-0.9,10.3-0.9,10.3s7.7-0.4,8-0.4l9.8-2.2c0,0,4.4-0.2,7-0.7
		c0-3.5-3.9-10.7-8.1-15.3C136.8,9.7,128.7,4.5,127.1,5.5C127.1,5.5,128.7,4.5,127.1,5.5"/>
	<path class="st1" d="M123.1,47.8c0,0.3,9.8-1.2,10.2-1.2c4.2,0,7.7,0.3,11.3,0.7c2.4,0.1,7.7,2.2,11,3c0-3-3.3-19.1-5.4-19.1
		c-5.2,0-10.6,0.8-15.8,2.1l-8.9,1.1C125.2,35.3,123.1,46.9,123.1,47.8C123.1,47.8,123.1,46.9,123.1,47.8"/>
	<path class="st2" d="M123.4,47.8l-0.7,29.6v3.2l0.2-0.2c0,0,0.1-1.7,2.1-4.2c2.6-1.6,7.8-6.9,8.3-7.2c3.9-3.7,6.2-6.7,13.7-6.7
		c2.1,0,6.7,3,8.8,3.7c1.7,0,1-14.3-0.3-15.9c-4.1-1.6-11-3.3-16.4-3.5C134,46.3,127.4,46.7,123.4,47.8
		C123.4,47.8,127.4,46.7,123.4,47.8"/>
	<path class="st0" d="M132,94.9c0,0-7.8,2.7-12.7,2.6c-3.2-0.2-6-4-6.8-6.4c-1.2-4.4-3.9-8.5-5.1-11.4c-2.6-0.5-10.3,3.6-12.7,5.4
		c-6,4-13.7,9.3-13.2,10.3c0,0,8,14.4,16,18.3c2.8,1.3,7.2,4.8,11.8,4.3c4.1-1.6,10.4-6.2,15-10.4C128.7,102.1,132,94.9,132,94.9"/>
	<path class="st0" d="M81.3,95.3c3.5-2.4,13.4-9.6,15.2-11.1c-2.5-2.6-4.9-7.2-4.9-10.9c0-0.8-2.1-6.9-2.3-7.4
		c-0.1-0.5-2.1,0.7-2.7,0.7c-1,0-3.1-1-4.1-1c-1.1,0-8-2.2-8.6-2.7C73.1,62.6,74,65.6,74,68c0,2.4,1.4,9.8,1.4,10.9
		C75.4,79.7,81.1,95.4,81.3,95.3C81.3,95.3,81.1,95.4,81.3,95.3"/>
	<path class="st3" d="M89.1,66.3c-0.6,1.9-13.2-2.1-15.5-3.2L73,58.1c0.1-0.3,1.3-7.9,1.3-10.4c0-2.7,2.9-13.8,3.9-15.1
		c1-1.4,4.6-9.6,5.6-9.6c3.1,0.5,2.1,8,3.4,10.4c0.5,0.3,2.9,9,1.8,13.9c-1,5-2,8.6-1,12.8C88,60.1,89.5,65.3,89.1,66.3
		C89.1,66.3,89.5,65.3,89.1,66.3"/>
	<path class="st2" d="M96,45.1c0,0-6.4-3.2-6.9-1.3c-0.5,2.1-3.3,12-0.2,21.5c2.9,9.4,2.3,11.2,3.6,13.3c1,1.8,2.4,6.4,3.2,5.8
		c3.1-1.3,10.1-3.5,11.6-4.6c-0.4-4.8,0.5-20.4,0.5-22.1c0.1-4.5,1.5-8.5,0.5-9.5c-1.3-1-4.7-0.8-5.4-0.8
		C102.2,47.3,96,45.1,96,45.1"/>
	<path class="st1" d="M108.5,28.8c0,0,1.5,1.8,0.9,4.5c-0.2,1.9-0.9,6.6-0.9,9.3l-0.1,5.5c0,0-4.6-0.2-6.6-0.8
		c-3.1-0.9-9.4-3.2-9.6-3.2c-0.2,0-3.6,0.3-3.6-1.5c0-1.9-1.5-5.1-1.1-7.1c0.1-0.9,1.8-4.5,4.7-4.5c3.1,0,5.2,0,6.9-0.3
		C100.7,30.4,108.5,28.8,108.5,28.8"/>
	<path class="st3" d="M114.1,36.3c0,0,0.5-1.6,1.7-1.6c0.6,0,1.4,0.6,2,2.1c1.1,2.6,2,4.6,2,6.1c0,2.2-1,3.5-1,4.2
		c0,0.9-1,2.2-1.8,2.5c-0.7,0.1-1.7-0.5-1.8-1.1c-0.3-0.7-1.7-2.6-2.1-3.9c-0.6-2-0.7-3.8,0.1-4.8C113.4,38.8,114.1,36.3,114.1,36.3
		"/>
	<g>
		<path d="M165.8,157.7l-0.1,0.3c-0.9,3.5-2.7,9.1-6,11c-0.1,0.1-0.2,0.1-0.3,0.2c-1,0.5-2,0.6-3.1,0.5c-0.2,0-0.4-0.1-0.6-0.2
			c-1.8-0.7-2.5-3.4-2.7-5.1c-0.5-3.1-0.1-6.7,0.7-9.8c0.8-3.5,2.7-9.2,6.1-11.2c0.1-0.1,0.2-0.1,0.4-0.2c1-0.5,2-0.6,3-0.3
			c1.9,0.4,2.8,3,3.2,4.6C167,150.8,166.6,154.6,165.8,157.7 M168.6,140.6c-0.9-0.8-1.9-1.4-3.1-1.7c-1.9-0.5-3.9-0.2-5.7,0.7
			c-0.1,0.1-0.2,0.1-0.3,0.2c-4.8,2.5-8.2,8.2-9.8,13.2c-0.8,2.6-1.5,5.7-1.7,8.7v2c0.2,4.2,1.8,8,6.2,9.9c1.8,0.8,4,0.2,5.7-0.7
			c0.1-0.1,0.2-0.1,0.4-0.2c4.7-2.7,8.3-8.1,9.8-13.1C171.7,154.3,173.4,144.9,168.6,140.6 M207.2,138.8h-6c0.5-3.8,1-7.6,1.4-11.5
			c0.1-1.5,1.2-2.1,2.6-2.2c1-0.1,2.4,0.1,3.4,0.3l1,0.3v-4.9l-0.7-0.1c-5-0.5-8.5,2-10.6,6.3c-1.4,2.9-2.3,6.7-2.4,10
			c-0.1,1.9-1.5,3-3.3,2.9l-0.8-0.1v2.3h3.6c-0.7,6.6-1.4,13.1-2.2,19.7c-0.5,4-0.9,8-1.4,12c-0.3,2.5-0.6,5.1-1.1,7.5
			c-0.6,3.2-2.9,6.9-5.6,8.8l-0.3,0.2v2.3l0.8-0.1c3-0.2,5.3-1.8,7-4.2c1.8-2.5,3.2-6.5,3.7-9.7c1.5-12.2,3-24.5,4.5-36.8h6.6V138.8
			z M140,159.6c-1.5,3.2-3.4,5.9-5.3,7.7c-2.2,2.2-4.4,3.2-5.9,2.4c-2.9-1.5-2.6-8.4,0.7-15.4c1.5-3.2,3.4-5.9,5.2-7.8
			c2.3-2.2,4.4-3.2,6-2.4C143.5,145.6,143.3,152.5,140,159.6 M140.1,159.3c0.1-0.2,0.1-0.3,0.2-0.5
			C140.3,159,140.2,159.2,140.1,159.3 M143.2,139.5c-2.9-1.4-6.1,0.5-8.5,2.4c-0.3,0.3-0.6,0.5-0.8,0.8c-2.1,2-3.9,4.4-5.4,6.9
			c0.3-3.2,0.7-6.3,1-9.4c0.4-3.2-0.8-1.4-2.2-0.8c-1.7,0.8-5.2,1.7-6.2,1.9l-0.6,0.1v2.6l0.9-0.2c0.8-0.1,1.7-0.3,2.5-0.5
			c-0.9,7.9-1.8,15.8-2.8,23.8c-0.6,5.3-1.2,10.6-1.9,15.9c-0.4,2.9-0.7,5.8-1.1,8.7l-0.1,1.1l1.1-0.2c1-0.2,2-0.4,3.1-0.6l0.5-0.1
			l0.1-0.5c0.6-4.6,1.4-9.3,2.2-13.9c0.2-1.3,0.4-2.5,0.7-3.8c2.9,1.5,6.3,0.1,8.8-1.9l0.1-0.1c3.5-2.7,6.5-6.9,8.4-10.9
			c1.9-4,3.4-8.7,3.4-13.1C146.7,144.8,146.1,140.9,143.2,139.5 M221,148.9c-0.5,1.4-2.6,4-5.5,6.1v0c-1.8,1.3-3.9,2.5-6.1,3.1
			c0.5-8.9,3.1-11,3.7-11.9c0.6-1,1.5-1.8,2.3-2.4v0c1.5-1,3.1-1.3,4.3-0.8C221.7,144,222.1,146.5,221,148.9 M224.1,139.5
			c-0.3-0.3-0.7-0.5-1.1-0.6c-2.6-1-5.2-0.3-7.5,1c-0.2,0.1-0.5,0.3-0.7,0.5c-4,2.7-7,7.5-8.7,12c-1.2,3.1-2,6.5-2.1,9.8v0.8
			c0,0.6,0.1,1.2,0.1,1.8c0.3,3.1,1.5,6.6,4.3,8.3c0.4,0.2,0.8,0.4,1.3,0.5c1.9,0.7,4,0.2,5.8-0.6l0.1,0c3.2-1.6,6.7-5.1,8.7-8
			l0.5-0.7l-0.7-0.4c-0.3-0.2-0.7-0.4-1.1-0.7l-0.5-0.4l-0.4,0.5c-1.7,1.9-4.1,4.3-6.5,5.5c-0.2,0.1-0.4,0.2-0.5,0.3l-0.1,0
			c-3.3,1.5-4.5-0.7-5-3.7c-0.2-1.4-0.3-3.2-0.2-4.8c2-0.6,4-1.4,5.8-2.5l0.1,0c4.2-2.2,8.2-5.7,9.9-10.3c0.4-1.1,0.7-2.4,0.7-3.6
			v-0.1C226.2,142.4,225.6,140.7,224.1,139.5 M213.2,146.2C213.2,146.2,213.2,146.2,213.2,146.2
			C213.2,146.2,213.2,146.2,213.2,146.2 M213,146.5C212.9,146.5,212.9,146.5,213,146.5C212.9,146.5,212.9,146.5,213,146.5
			 M119.9,167.2c0.4-0.4,0.9-0.9,0.5-1.5c-0.5-0.7-1.3-0.2-1.9,0.2c-1,0.5-1.9,1.2-2.8,1.8c-0.5,0.4-3.4,2.3-4.1,1.8
			c-0.4-0.3-0.2-2-0.2-2.4c0.2-1.7,0.5-3.4,0.7-5.2c0.1-1,0.1-2,0.3-3c0.1-0.8,0.3-1.7,0.5-2.6c0.5-3.2,1-6.3,1.5-9.5
			c0.3-2.1,0.5-6.2-1.8-7.3c-1.6-0.8-3.3,0.3-4.5,1.3c-2.3,1.9-4.5,5.1-6.1,7.7c-0.5,0.8-0.9,1.7-1.3,2.5c-0.6,1.3-1.3,2.6-1.9,3.9
			c-0.4,1-0.9,1.9-1.4,2.9c0.2-2,0.4-3.9,0.5-5.9c0.3-2.7,0.5-5.4,0.7-8.1c0.1-1.4-0.2-3.1-1.5-3.9c-2.5-1.5-6.1,1.2-7.8,2.9
			c-1.8,1.8-3.4,4.7-4.7,6.9c-1.1,1.9-2.1,4-3.1,6c0.2-2.2,0.5-4.4,0.7-6.6c0.2-1.9,0.5-3.9,0.7-5.8c0.1-1,0.2-2,0.4-3
			c0.3-1.9-0.3-1.8-1.7-0.9c-1.4,0.8-5.3,1.9-6.3,2.2l-0.6,0.1v2.3l0.9-0.1c0.8-0.1,1.5-0.2,2.3-0.4c-1.1,9.7-2.1,19.4-3.2,29.1
			l-0.1,0.9l0.9-0.1c1-0.1,1.9-0.1,2.9-0.3l0.5,0l0.1-0.5c0.8-2.5,1.6-5,2.4-7.6c1-2.7,2-5.4,3-8.1c0.4-1.1,1.1-2.3,1.6-3.3
			c1.6-2.8,3.5-5.5,5.6-8c0.2-0.3,1.1-1.3,1.6-1.3c0.4,0.5,0.2,3.4,0.2,4c-0.1,1.1-0.2,2.1-0.4,3.2c0,0.4-0.2,1.2-0.2,1.6
			c-0.1,1.1-0.3,2.2-0.4,3.2c-0.3,2.2-0.6,4.5-0.8,6.7c-0.4,3.3-0.8,6.7-1.2,10l-0.1,0.9h0.8c1.1,0,2.4-0.2,3.4-0.5l0.3-0.1l0.1-0.2
			c0.6-1,1-2.9,1.2-4c0.3-1.4,0.9-2.9,1.4-4.2c0.5-1.1,1-2.2,1.4-3.3c0.2-0.5,0.6-1.4,0.7-2c0.4-1.1,1.2-2.6,1.8-3.7
			c1.5-2.9,3.2-5.7,5-8.4c0.3-0.4,1.9-2.7,2.5-2.7c0.3,0.3,0.4,1.8,0.4,2.3c-1,6.8-2,13.6-3.1,20.4c-0.8,6.1,1.8,7.9,6.9,4.9
			c1.4-0.8,2.8-1.9,4-3c0.5-0.4,1-0.9,1.6-1.3C119.3,167.8,119.6,167.5,119.9,167.2 M64.1,147.4c-0.7,2.2-4.1,10.7-7.4,16.4v0
			c-1.4,2.3-2.7,4.2-3.8,4.8c-3.7,2.3-4.6-1.1-3.9-8.5c0.6-7.3,5.2-13.7,7.3-15.2c0.1-0.1,0.2-0.2,0.4-0.3c2.6-1.7,7.5-0.7,7.5-0.7
			S65.1,144,64.1,147.4 M64.1,147.3c0-0.1,0.1-0.2,0.1-0.4C64.2,147.1,64.2,147.2,64.1,147.3 M70,167.7l-0.6-0.4l-0.5,0.5
			c-0.3,0.4-1.7,1.7-2.3,1.5c-0.6-0.2-0.5-2.5-0.4-2.9c0.3-4,0.8-8.1,1.3-12c0.6-4.9,1.2-9.7,1.9-14.6c0.2-1.9-2.7-0.3-3.4,0.5
			c-0.1,0-0.2-0.1-0.2-0.1c-2.2-1.1-5.3-0.9-7.6,0.1c-0.5,0.3-1,0.5-1.5,0.8c-0.2,0.1-0.4,0.2-0.6,0.4c-6.7,4-9.9,11.2-11.4,18.6
			c-0.6,3.1-1,7.2,0.2,10.2c0.8,1.9,2.2,3.4,4.4,3.7c1.8,0.2,3.7-0.5,5.1-1.7c0.8-0.7,1.7-1.7,2.3-2.6c0.1-0.2,0.2-0.3,0.4-0.5
			c1.8-2.6,3.5-5.6,4.9-8.6c-0.2,2.2-0.3,4.5-0.3,5.2c-0.2,1-0.2,3-0.1,3.9c0.2,1.3,0.5,3,1.7,3.8c1.2,0.8,2.5,0.4,3.6-0.2
			c1.5-0.7,3.6-2.3,4.2-4l0.1-0.3l-0.2-0.3C70.8,168.3,70.3,167.9,70,167.7 M41.3,165.2l-0.1-1.3l-1.1,0.7c-4.7,3.2-10.4,4.6-16,3.5
			c-7.1-1.4-12.5-6.3-15.4-12.8c-3.8-8.7-3.4-18.2,4-24.9c2.8-2.5,6.2-4.2,9.9-4.9c3.2-0.6,6.7-0.3,9.6,1.3c3.2,1.9,4.9,5,5.5,8.6
			l0,0.1l0,0.1c0.3,0.8,1.2,0.7,1.9,0.4l0.5-0.2v-11l-0.4-0.2c-4.1-2.5-8.6-3.6-13.4-3.6c-14.5,0-26.3,11.7-26.3,26.3
			c0,14.5,11.7,26.5,26.3,26.5c4.3,0,11-2.7,14.8-4.6l0.5-0.2l-0.1-0.5C41.5,167.3,41.4,166.2,41.3,165.2"/>
		<path d="M113.4,39.9c0.8-1.6,1-2.9,1-2.9s0.4-1.6,1.3-1.8c0.1,0,0.3,0,0.4,0.1c0,0-0.1-0.1,0,0c0.5,0.2,0.9,0.8,1.5,1.8
			c1.2,2.7,1.7,4.5,1.7,5.8c0,1.9-0.6,2.8-0.9,3.9c-0.3,1.2-0.8,2-1.4,2.2c-0.3,0.2-0.6,0.1-0.9-0.1c-0.2-0.1-0.5-0.5-0.8-1
			c-1-1.5-1.9-3.2-2.2-4.9C112.8,42.1,112.9,40.9,113.4,39.9 M114.9,49.3c0.3,0.6,0.8,0.9,1.1,1.2c0.4,0.1,0.7,0.2,1,0.1
			c0.9-0.1,1.6-1.2,2.1-2.8c0.3-1.2,1.2-2.1,1.2-3.9c0.1-1.6-0.5-3.9-2.4-7.6c-0.7-1.3-1.3-1.9-1.9-2.2c-0.2-0.1-0.4-0.1-0.6-0.1
			c-1.1,0.2-1.7,2.1-1.7,2.1s-0.1,1.5-1.3,3.5C110.6,42.7,112.7,46.2,114.9,49.3 M90.1,18.6C90.1,18.7,90.1,18.7,90.1,18.6
			C90.1,18.7,90.1,18.6,90.1,18.6 M90.1,18.7c0,0.1-0.1,0.2-0.2,0.3C89.9,19,90,18.9,90.1,18.7 M137,8.4
			C137.1,8.4,137.1,8.4,137,8.4C137.1,8.4,137,8.4,137,8.4 M137.1,8.5C137.1,8.5,137.2,8.5,137.1,8.5C137.1,8.5,137.1,8.5,137.1,8.5
			 M152.6,61.4c-2.1,0-3.4-1.3-5.6-1.3c-1.8,0-2.9,0.5-4.7,0.6c-1.1,0.1-2.1,0.1-3,0.3c-0.8,0.1-1.5,0.4-2.1,1l-0.2,0.2
			c-3.3,3.3-5.1,7-9.7,7c-0.4,0-0.6-0.2-0.9-0.5l0,0c-0.1-0.2-0.3-0.4-0.4-0.5l0.3-17c0,0,0,0,0.1,0h0c3.5-1.6,6.7-2.8,10.6-3.1
			c0.7-0.1,1.4-0.1,2.2-0.1h0.1c5.3,0,8.9,0.3,13,3.5c2.3,1.7,2.1,4.3,2.1,7.2C154.4,60,153.6,61.4,152.6,61.4 M139.3,102.1
			c-0.8,0.8-1.5,1.6-2.3,2.4c-3.7,3.8-7.4,6.9-10.6,8.7l0,0c-0.8,0.5-1.5,0.8-2.2,1.2c-0.5,0.2-1,0.4-1.5,0.6
			c-0.8,0.2-1.5,0.3-2.2,0.2c-0.5,0,0.5-0.6,2.2-1.9c0.5-0.4,1-0.7,1.5-1.2c0.7-0.6,1.5-1.3,2.2-2.1l0,0c2.4-2.5,4.9-6,6.6-10.8
			c1.3-3.6,2.6-6.8,4-9.4c0.7-1.5,1.5-2.8,2.3-3.9c7.2-11,14.3-11,14.3-10.4C153,83.8,146.6,94.1,139.3,102.1 M116.6,110.7
			c0.1,0,0.1-0.1,0.2-0.2C116.7,110.6,116.7,110.6,116.6,110.7 M105.1,113.5c-2.9-0.4-5.6-1.6-8-3.3c-2.6-1.8-4.9-4.1-6.7-6.4
			l-0.1-0.1c-0.8-1-1.5-1.9-2.1-2.8c-1.9-2.7-3-4.7-3-4.7s1.1-0.8,3-2.2c0.6-0.5,1.3-1,2.1-1.6l0.1-0.1c1.9-1.5,4.3-3.2,6.7-5
			c0.1-0.1,0.2-0.1,0.2-0.2c6.7-4.8,11.1-2.5,13.7,6.9c0.9,3.2,3.1,4.7,5.5,5.4c2,0.5,4.2,0.5,6.1,0.2c0.5-0.1,1.1-0.1,1.5-0.2
			c0.9-0.2,1.6-0.3,2.2-0.5l0,0c0.9-0.2,1.5-0.5,1.5-0.5s0,0.1-1.5,1.9l0,0.1c-0.6,0.7-1.2,1.6-2.2,2.7c-0.4,0.5-0.8,0.9-1.2,1.5
			l-0.3,0.3c-2,2.5-4.1,4.3-6.1,5.7C112.6,113.3,108.6,114,105.1,113.5 M81.2,87.6L81.2,87.6C81.2,87.6,81.2,87.6,81.2,87.6
			c0-0.4,0-0.7,0-0.7l0,0C81,86.5,80.4,85,80,83.4c-0.7-1.9-2.1-4.3-2.5-5.8c-0.5-1.4-1.4-7.2-1.4-9.6c0-2.4,1.3-1.3,2.6-0.1
			c0.8,0.7,1.7,0.9,2.4,1.1l0.1,0c0.5,0.1,1,0.1,1.4,0.2c1.2,0,2.1,1,3.9,0c1.6-0.8,1.4,0.6,1.6,1.1c0.1,0.5,0.5,1.6,0.8,2.9
			c0.1,1.1,0.1,4.4,1.3,6.9c0,0.1,0.1,0.1,0.1,0.2c0.1,0.1,0.2,0.3,0.3,0.4c1.1,2,0.1,2.9-0.3,3.2c0,0-0.1,0-0.1,0h0
			c-0.1,0.2-0.7,1-2.1,2.3c-0.7,0.7-1.7,1.5-3,2.5C82.2,91,81.4,88.8,81.2,87.6 M75.4,57.9c0.1-0.3,1-7.8,1-10.6
			c0.1-2.7,1.8-11.9,3.4-13.8c0.6-0.8,1-1.6,1.3-2.3l0.1-0.2c0.5-1.1,0.8-1.7,1.6-1.4c1.3,0.5,1.1,1.6,0.5,2.9
			c-0.6,1.3,0.3,4.7,1.8,5.4c1.3,0.6,2.8,5.4,1,11.1c-1.6,5.6-1.4,7.6-0.5,11.7c0,0,0.8,1.6,0.5,2.6c-0.5,1.3-2.6-0.1-4.9-1.3
			l-0.1,0c-1.2-0.6-2.4-1.2-3.4-1.3C74.8,60.5,75.4,58.2,75.4,57.9 M88.1,22.8c0.4-1.5,1.2-2.8,2-4.2c0-0.1,0.1-0.3,0.1-0.4l0.1-0.2
			c0.7-1.5,1.5-3,3.1-3.7c1-0.5,2.4-1.5,3-2.2c0.3-0.2,0.5-0.5,0.8-0.8c1.6-1.8,2.5-2.4,5.3-2.9c1.5,0.2,1.2,1.9,1.5,3.6
			c0.9,2.7,2.1,4,2.1,6.6c0,1.6-0.3,2.6-0.6,4V26c-2.9,0-5.1,0.6-7.5,1.7h-4.6l-2.1,1.1C90.9,29,90.6,29,90.3,29h-0.1
			c-0.6,0-0.9-0.3-1.6-0.8c0-1-0.3-1.8-0.5-2.7C88,25.2,88,24.7,88,24.2C88,23.7,88,23.3,88.1,22.8 M105.3,59.6
			c1.3,1.9,0.2,8.4,0.5,13.2c0.3,4.8-1,4.5-4.6,6.3c-2.1,1.2-3.2,1-4.1,0.2c-0.6-0.6-1.2-1.5-1.9-2.6c-2.1-2.9-0.9-3.4-4.2-13.1
			c-0.2-0.6-0.4-1.2-0.6-1.7c0-0.1-0.1-0.2-0.1-0.3c-1.4-5-0.8-7.9,0-9.9c0-0.1,0.1-0.1,0.1-0.2c0.6-1.2,1.2-2.1,1.6-3.1
			c0.7-1.7,3.4-1,5.2-0.3c0.9,0.3,1.5,0.7,1.5,0.7s3.1,1.5,4.4,2.1c1.3,0.5,1.4-0.1,2.8,1c0.8,0.6-0.1,1.7-0.1,3.1
			C105.6,57,105,57.2,105.3,59.6 M106.4,33.4c-0.4,2.3-0.4,4.2-0.7,7.2c-0.3,2.7-0.3,5.5-4.6,3.7c-1.4-0.5-2.8-1-4.1-1.5
			c-2.1-0.7-3.8-1.2-3.9-1.2c-0.2,0-2.2-0.1-2.6-1.8c-0.2-0.3,0-0.6-0.2-0.7c0,0-0.1-0.1-0.1-0.2c-0.2-0.4-0.3-1.3,0-2.2l0-0.1
			c0-0.1,0.1-0.2,0.1-0.4c0.3-1.2-0.1-2.1,2.6-2.1c1.8,0,3.1,0,4.2-0.2c0.8-0.1,1.3-0.1,2-0.3c1.7-0.3,3.3-0.5,3.3-0.5
			S106.8,31.3,106.4,33.4 M106.6,32.5C106.6,32.4,106.6,32.4,106.6,32.5 M111.3,6c2.3,0,4,0,5.2-0.1c1.1,0,1.7-0.1,1.7-0.1
			s2.5-0.2,4.4,0.6c0.6,0.2,1.2,0.6,1.5,1c0.5,0.6,0.7,1.4,0.5,2.6c-0.8,5,0,10.9,0,13.5c-0.1,1.5-0.2,5.1-0.5,8.6
			c-0.2,2.8-0.6,5.6-1.2,7c-0.1,0.2-0.2,0.5-0.3,0.7c-1.1,3.1-1.6,7.3-1.3,10.9c0.1,4-1.7,41.1-1.7,41.1s-0.4,6.9-3.1,2.6
			c-0.3-0.6-0.8-1.4-1.3-2.6c-3.8-8.8-6.5-11.9-6-23.3c0.5-11.4,1.1-30.9,2-32.5c0.8-1.6,1-8.8,0-14.7c-1-5.8-2.5-9.9-2.5-11.2
			C108.5,8.4,106.9,6,111.3,6 M126.4,82.3l0-0.1c0.7-1.3,1.6-2.8,3-4.9c2.7-4.1,5.3-7,7.6-8.9c0.8-0.6,1.5-1.2,2.3-1.6
			c8.1-4.7,13.3,1.8,13.3,1.8s-9.1,4.6-13.3,11.3c-0.8,1.2-1.4,2.5-1.8,3.8c-0.1,0.6-0.3,1-0.5,1.5c-2.1,4.8-7.8,7.9-10.6,8.7h0
			c-0.9,0.3-1.5,0.4-1.5,0C125.1,87.6,124,87,126.4,82.3C124.2,86.5,126,83,126.4,82.3 M127,43.3c0-1.8,1-2.7,1-4.5
			c0-1.1,0.1-2.4,1.3-2.4h6c0.6-0.2,1.2-0.3,1.7-0.4c0.8-0.2,1.5-0.4,2.3-0.5c3-0.7,5.5-1,9.2-1c2,0,2.4,1.9,3.1,3.9
			c0.8,2.5,1.1,3.8,1.1,6.6v2.5c-3.2-0.8-5-0.9-8.1-1.4c-2.1-0.3-3.7-0.7-5.3-1c-0.8-0.1-1.5-0.3-2.3-0.4c-1-0.1-2-0.2-3.2-0.2
			c-2.3,0-5.1-0.5-6.5,1.3C126.5,45.3,127,44.3,127,43.3 M127.8,27.8c0.2-1.4,0-2.1,0.5-3.4l0.3-10.3c0-1.1-1.3-2.6-0.6-2.9
			c1.4-0.6,5.3,1.4,9.1,4.4c0.8,0.6,1.5,1.3,2.3,2c3.7,3.4,6.7,7.6,6.9,11.1c0,0.6-3.1,0.5-3.1,0.5l-3.8,0.8l-2.3,0.5l-3.7,0.8
			c0,0-4.9,0.7-5.6,0C127,30.5,127.8,27.8,127.8,27.8 M139.3,10.4c-0.7-0.7-1.5-1.4-2.3-2c-3.4-2.6-6.9-4.8-10.6-6.2l0,0
			c-0.7-0.3-1.4-0.5-2.2-0.8c-0.5-0.1-1-0.3-1.5-0.4c-2-0.5-4-0.8-6.1-0.9c-0.5,0-1.1-0.1-1.6-0.1c-6.4,0-12.4,1.9-17.8,5.3
			c-2.4,1.5-4.6,3.2-6.7,5.2l-0.1,0.1c-0.7,0.7-1.4,1.4-2.1,2.1c-2.6,2.8-4.9,5.9-7,9.3l-0.1,0.1c-6.2,10.5-9.9,23.9-9.9,38.5
			c0,14.6,3.8,28,9.9,38.6l0.1,0.1c2.1,3.5,4.4,6.6,7,9.4c0.7,0.7,1.4,1.4,2.1,2.1l0.1,0.1c2.2,2,4.4,3.8,6.7,5.2
			c5.4,3.4,11.5,5.2,17.8,5.2c0.6,0,1.1,0,1.6,0c2.1-0.1,4.1-0.4,6.1-0.9c0.5-0.1,1-0.3,1.5-0.5c0.8-0.2,1.5-0.5,2.2-0.8h0
			c3.8-1.4,7.3-3.5,10.6-6.2c0.8-0.6,1.5-1.3,2.3-2c11.7-11,19.3-29.5,19.3-50.4C158.6,39.8,151,21.4,139.3,10.4 M89.7,19.3
			C89.7,19.4,89.6,19.5,89.7,19.3"/>
	</g>
</g>
</svg>
